<?xml version="1.0" encoding="UTF-8"?><svg id="Calque_1" xmlns="http://www.w3.org/2000/svg" viewBox="0 0 700 500"><defs><style>.cls-1,.cls-2{fill-rule:evenodd;}.cls-1,.cls-3{fill:#6e8cff;}.cls-4{fill:#fff;}.cls-2,.cls-5{fill:#ff4445;}</style></defs><path d="M103.54,335.38v18.91c-2.67,1.13-5.54,1.69-8.61,1.69-4.1,0-7.95-1.05-11.53-3.15-3.59-2.1-6.51-5.15-8.77-9.15-2.26-4-3.38-8.82-3.38-14.46,0-8.61,3-15.2,9-19.76,6-4.56,13.76-6.89,23.3-7v16.3c-1.64.72-2.95,1.72-3.92,3-.98,1.28-1.46,2.9-1.46,4.84,0,2.36.51,4.28,1.54,5.77,1.02,1.49,2.31,2.49,3.84,3ZM111.23,294.02c0-2.97-1.03-5-3.08-6.07-2.05-1.08-4.67-1.61-7.84-1.61-3.9,0-7.64.36-11.23,1.08-3.59.72-7.18,1.74-10.76,3.08v-21.53c4.61-1.02,9.4-1.97,14.38-2.84,4.97-.87,9.97-1.31,14.99-1.31,5.64,0,10.81.69,15.53,2.08,4.71,1.38,8.51,3.87,11.38,7.46,2.87,3.59,4.31,8.71,4.31,15.38v64.74h-23.99l-3.69-13.22v-47.21Z"/><path d="M178.12,277.87v76.58h-27.68v-88.42h23.53l4.15,11.84ZM185.81,286.48v-19.99c3.38-1.13,6.66-1.69,9.84-1.69,7.07,0,12.94,2.21,17.61,6.61,4.66,4.41,7,11.02,7,19.84v63.2h-27.68v-58.74c0-5.54-2.26-8.61-6.77-9.23Z"/><path d="M227.17,286.79v-20.76h11.53v-19.38h27.68v19.38h16.76v20.76h-55.97ZM238.7,293.1h27.68v31.99c0,2.87.74,4.97,2.23,6.3,1.49,1.33,3.87,2,7.15,2,1.64,0,3.08-.08,4.31-.23,1.23-.15,2.25-.33,3.08-.54v20.45c-2.46.82-5.05,1.51-7.77,2.08-2.72.56-5.46.85-8.23.85-9.43,0-16.53-2.02-21.3-6.07-4.77-4.05-7.15-11.3-7.15-21.76v-35.06Z"/><path d="M291.6,238.35h29.22v20.91h-29.22v-20.91ZM292.37,266.03h27.68v88.42h-27.68v-88.42Z"/><path d="M367.26,265.57v20.91c-4,.41-6.56,2.77-7.69,7.07-1.13,4.31-1.69,10.56-1.69,18.76s.62,13.82,1.85,17.15c1.23,3.33,3.54,5,6.92,5h.62v19.84c-3.08,1.13-6.3,1.69-9.69,1.69-5.64,0-10.28-1.21-13.92-3.61-3.64-2.41-6.51-5.71-8.61-9.92-2.1-4.2-3.59-8.94-4.46-14.22-.87-5.28-1.31-10.84-1.31-16.68,0-16.81,2.64-28.81,7.92-35.98,5.28-7.17,12.89-10.76,22.84-10.76,1.13,0,2.31.08,3.54.23,1.23.15,2.46.33,3.69.54ZM375.1,242.5l27.68-4.15v116.1h-23.53l-4.15-12.15v-99.8Z"/><path d="M446.15,333.38v22.45c-12.3-.61-21.07-4.48-26.3-11.61-5.23-7.12-7.84-18.43-7.84-33.91s2.61-26.76,7.84-33.83c5.23-7.07,13.99-10.92,26.3-11.53v22.45c-1.95,1.23-3.36,3.69-4.23,7.38-.87,3.69-1.31,8.92-1.31,15.69,0,13.02,1.85,20.66,5.54,22.91ZM453.83,355.84v-22.6c3.69-2.46,5.54-10.05,5.54-22.76s-1.84-20.66-5.54-22.91v-22.6c12.3.51,21.07,4.33,26.3,11.46,5.23,7.13,7.84,18.43,7.84,33.91s-2.61,26.78-7.84,33.91c-5.23,7.13-13.99,11-26.3,11.61Z"/><path d="M492.59,286.79v-20.76h11.53v-19.38h27.68v19.38h16.76v20.76h-55.97ZM504.12,293.1h27.68v31.99c0,2.87.74,4.97,2.23,6.3,1.49,1.33,3.87,2,7.15,2,1.64,0,3.08-.08,4.31-.23,1.23-.15,2.25-.33,3.08-.54v20.45c-2.46.82-5.05,1.51-7.77,2.08-2.72.56-5.46.85-8.23.85-9.43,0-16.53-2.02-21.3-6.07-4.77-4.05-7.15-11.3-7.15-21.76v-35.06Z"/><path d="M595.31,355.99c-6.05,0-11.56-.67-16.53-2-4.97-1.33-9.25-3.69-12.84-7.07-3.59-3.38-6.36-8.05-8.3-13.99-1.95-5.94-2.92-13.53-2.92-22.76,0-14.35,2.56-25.35,7.69-32.98,5.12-7.64,13.38-11.76,24.76-12.38v22.6c-2.26,3.49-3.38,10.92-3.38,22.3,0,6.67.51,11.79,1.54,15.38,1.02,3.59,3,6.05,5.92,7.38,2.92,1.33,7.1,2,12.53,2,2.36,0,4.79-.2,7.3-.62,2.51-.41,4.95-.87,7.3-1.38v20.91c-3.59.72-7.36,1.33-11.3,1.85-3.95.51-7.87.77-11.76.77ZM591.46,318.78v-17.07h5.07c0-2.36-.08-4.87-.23-7.54-.15-2.66-.69-4.87-1.61-6.61v-22.6c9.74.82,16.76,4.33,21.07,10.53,4.31,6.2,6.46,14.94,6.46,26.22,0,2.87-.1,5.82-.31,8.84-.21,3.02-.56,5.77-1.08,8.23h-29.37Z"/><rect x="71.47" y="364.12" width="550.52" height="38.41" transform="translate(-19.59 18.67) rotate(-3)"/><path class="cls-4" d="M87.64,402.17c.78-.04,1.35-.18,1.73-.43.38-.24.55-.62.52-1.13-.02-.35-.12-.62-.32-.81-.19-.19-.53-.38-1.01-.56l-3.33-1.33c-1.23-.49-2.2-1.18-2.91-2.06-.7-.89-1.1-2.21-1.19-3.97-.12-2.25.38-3.96,1.5-5.14,1.12-1.18,3.03-1.84,5.75-2.01,1.12-.06,2.15-.06,3.07,0,.92.05,1.94.16,3.06.33l-.35,4.97c-1.01-.07-1.88-.11-2.62-.12-.74-.01-1.46,0-2.15.04-.74.04-1.29.17-1.65.41-.37.23-.53.65-.5,1.24.02.33.17.59.47.79.3.2.71.4,1.23.6l2.67,1c1.42.54,2.47,1.25,3.16,2.12.68.88,1.07,2.15,1.15,3.83.12,2.27-.38,4.05-1.5,5.34-1.12,1.29-3.04,2.01-5.76,2.18-1.35.07-2.61.05-3.78-.06-1.17-.11-2.22-.26-3.13-.44l.35-4.97c1.01.11,1.94.19,2.78.22.84.04,1.76.03,2.77-.02Z"/><path class="cls-4" d="M103.93,388.65l3.34-.18.22,4.14-3.34.18.4,7.63c.03.57.2.98.51,1.23.31.25.79.36,1.45.32.33-.02.61-.05.86-.09.24-.04.45-.09.61-.14l.21,4.08c-.48.19-.99.35-1.53.5s-1.08.23-1.63.25c-1.88.1-3.32-.23-4.31-.99-.99-.76-1.54-2.18-1.65-4.26l-.43-8.25-2.3.12-.22-4.14,2.3-.12-.2-3.86,5.52-.29.2,3.86Z"/><path class="cls-4" d="M117.01,405.95c-1.82.1-3.3-.13-4.45-.69-1.15-.55-2-1.49-2.58-2.8-.57-1.31-.91-3.05-1.03-5.22-.11-2.17.04-3.93.48-5.28.43-1.35,1.19-2.37,2.27-3.04,1.08-.67,2.53-1.06,4.35-1.15,1.84-.1,3.33.13,4.46.69,1.14.55,1.99,1.48,2.56,2.79.57,1.3.91,3.04,1.03,5.2.11,2.17-.04,3.93-.48,5.3-.43,1.36-1.18,2.38-2.25,3.05-1.07.67-2.53,1.06-4.37,1.15ZM116.75,401.62c.69-.04,1.17-.43,1.41-1.2.25-.76.33-1.98.24-3.66-.09-1.7-.3-2.91-.62-3.64-.33-.73-.84-1.08-1.53-1.04-.67.04-1.13.43-1.37,1.19-.24.76-.31,1.99-.22,3.69.09,1.68.29,2.88.6,3.61.31.73.81,1.08,1.48,1.04Z"/><path class="cls-4" d="M126.65,409.74l-1.17-22.23,4.69-.25.53,1.39c.44-.56.99-.99,1.64-1.32.65-.32,1.36-.5,2.14-.54,1.12-.06,2.06.13,2.81.58.75.44,1.36,1.07,1.82,1.89.46.82.81,1.75,1.04,2.79.23,1.04.37,2.15.44,3.31.18,3.35-.22,5.77-1.19,7.26-.97,1.49-2.45,2.28-4.46,2.39-.9.05-1.91-.08-3.03-.39l.21,4.05-5.48,1.09ZM132.98,400.8c.94-.05,1.52-.51,1.73-1.38.21-.87.27-2.18.18-3.91-.08-1.61-.27-2.75-.55-3.4-.28-.65-.76-.96-1.43-.92-.2.01-.45.06-.73.16-.28.1-.59.25-.93.45l.47,8.89c.48.1.9.14,1.27.12Z"/><path class="cls-4" d="M154.69,403.97c-.82.04-1.59-.13-2.33-.51-.74-.38-1.35-.96-1.84-1.73-.49-.77-.77-1.72-.83-2.85-.09-1.76.46-3.12,1.65-4.08,1.19-.96,2.77-1.5,4.73-1.6l1.32-.07-.09-1.69c-.03-.59-.26-.99-.68-1.18-.42-.19-.95-.27-1.58-.24-.78.04-1.52.15-2.23.33-.71.18-1.41.42-2.11.73l-.22-4.29c.91-.25,1.85-.49,2.84-.72.98-.23,1.97-.36,2.98-.42,1.12-.06,2.16.02,3.12.25.95.23,1.74.68,2.35,1.37.61.69.95,1.69,1.02,3.02l.68,12.91-4.78.25-.44-1.3c-.48.58-1.03,1.02-1.65,1.32-.62.3-1.25.47-1.88.5ZM156.63,399.81c.41-.02.77-.22,1.08-.61l-.16-3.04-.4.02c-.61.03-1.13.21-1.54.53-.41.32-.61.77-.57,1.37.03.57.21,1.01.53,1.31.32.3.68.44,1.07.42Z"/><path class="cls-4" d="M174.05,401.45c-.55.5-1.14.9-1.78,1.2-.64.3-1.29.47-1.94.5-1.35.07-2.5-.31-3.44-1.14-.95-.83-1.46-2.13-1.56-3.88l-.66-12.66,5.52-.29.61,11.71c.07,1.25.6,1.84,1.6,1.79.39-.02.74-.15,1.06-.39l-.69-13.25,5.52-.29.92,17.63-4.69.25-.46-1.17Z"/><path class="cls-4" d="M188.74,384.2l5.58-.29-3.03,9.07,3.92,8.56-5.58.29-1.4-3.31-.6-2-1.37,5.48-5.58.29,3.03-9.07-3.92-8.56,5.58-.29,1.4,3.31.6,2,1.37-5.48Z"/><path class="cls-4" d="M204.62,405.66l-1.17-22.23,4.69-.25.53,1.39c.44-.56.99-.99,1.64-1.32.65-.32,1.36-.5,2.14-.54,1.12-.06,2.06.13,2.81.58.75.44,1.36,1.07,1.82,1.89.46.82.81,1.75,1.04,2.79.23,1.04.37,2.15.44,3.31.18,3.35-.22,5.77-1.19,7.26-.97,1.49-2.45,2.28-4.46,2.39-.9.05-1.91-.08-3.03-.4l.21,4.05-5.48,1.09ZM210.94,396.72c.94-.05,1.52-.51,1.73-1.38.21-.87.27-2.18.18-3.91-.08-1.61-.27-2.75-.55-3.4-.28-.65-.76-.96-1.43-.92-.2.01-.45.06-.73.16-.28.1-.59.25-.93.45l.47,8.89c.48.1.9.14,1.27.12Z"/><path class="cls-4" d="M228.37,400.11c-1.21.06-2.31-.01-3.32-.23-1.01-.21-1.88-.64-2.63-1.28-.75-.64-1.35-1.54-1.8-2.7-.45-1.16-.72-2.67-.82-4.51-.16-2.98.28-5.27,1.32-6.85,1.03-1.58,2.79-2.44,5.26-2.57,2.25-.12,3.91.42,4.99,1.6,1.08,1.18,1.68,2.99,1.81,5.42.03.57.04,1.16.03,1.77,0,.6-.05,1.16-.13,1.65l-7.33.38c.19,1.24.58,2.06,1.17,2.44.59.39,1.57.55,2.92.48.47-.02.95-.09,1.45-.2.5-.11.98-.22,1.44-.35l.22,4.17c-.71.18-1.45.34-2.23.49-.78.14-1.56.24-2.34.28ZM226.8,386.02c-.82.04-1.24,1.17-1.27,3.39l2.51-.13c-.02-.45-.06-.93-.12-1.44-.06-.51-.17-.94-.35-1.3-.17-.36-.43-.53-.78-.51Z"/><path class="cls-4" d="M240.81,393.98c-.02-.35-.29-.67-.82-.97l-2.73-1.58c-.99-.58-1.72-1.23-2.19-1.95-.47-.71-.73-1.66-.79-2.85-.09-1.7.35-2.98,1.3-3.87.96-.88,2.58-1.39,4.87-1.53.86-.04,1.65-.05,2.38-.02.73.03,1.54.11,2.43.23l-.25,4.1c-.62-.05-1.17-.09-1.65-.11-.48-.03-.98-.03-1.49,0-.74.04-1.26.13-1.58.27-.32.14-.47.38-.45.73.01.2.08.37.21.5.13.13.33.26.61.41l2.79,1.61c1.01.58,1.76,1.23,2.22,1.93.47.7.73,1.63.79,2.77.1,1.82-.35,3.21-1.35,4.17-1,.96-2.68,1.52-5.05,1.66-1.04.05-2,.05-2.88-.02-.88-.07-1.68-.17-2.4-.32l.24-4.19c1.52.15,2.91.19,4.16.12,1.12-.06,1.67-.43,1.63-1.1Z"/><path class="cls-4" d="M254.53,380.75l3.34-.18.22,4.14-3.34.18.4,7.63c.03.57.2.98.51,1.23.31.25.79.36,1.45.32.33-.02.61-.05.86-.09.24-.04.45-.09.61-.14l.21,4.08c-.48.19-.99.35-1.53.5-.54.14-1.08.23-1.63.25-1.88.1-3.32-.23-4.31-.99-.99-.76-1.54-2.18-1.65-4.26l-.43-8.25-2.3.12-.22-4.14,2.3-.12-.2-3.86,5.52-.29.2,3.86Z"/><path class="cls-4" d="M259.27,374.97l5.83-.31.22,4.17-5.83.31-.22-4.17ZM259.71,380.48l5.52-.29.92,17.63-5.52.29-.92-17.63Z"/><path class="cls-4" d="M275.77,397.62c-1.1.06-2.13-.03-3.09-.27-.96-.24-1.8-.67-2.54-1.31-.74-.64-1.34-1.54-1.79-2.7-.45-1.16-.72-2.65-.82-4.45-.09-1.76.06-3.23.46-4.42.4-1.19.98-2.14,1.74-2.86.76-.72,1.64-1.25,2.62-1.6.99-.35,2.03-.55,3.13-.61.72-.04,1.37-.02,1.97.05.6.07,1.22.19,1.86.36l.36,6.9-3.16.17-.78-3.16c-.92.05-1.59.43-2.02,1.15s-.59,1.98-.49,3.78c.07,1.29.28,2.27.65,2.95.36.68.85,1.12,1.45,1.34.61.21,1.32.26,2.13.15.81-.11,1.69-.32,2.64-.62l.23,4.35c-.62.22-1.36.39-2.22.53-.85.14-1.64.22-2.35.26Z"/><path class="cls-4" d="M280.88,373.84l5.83-.31.22,4.17-5.83.31-.22-4.17ZM281.33,379.35l5.52-.29.92,17.63-5.52.29-.92-17.63Z"/><path class="cls-4" d="M295.27,396.6c-1.12.06-2.06-.13-2.81-.58-.75-.44-1.36-1.07-1.82-1.89-.46-.82-.81-1.75-1.04-2.79-.23-1.04-.37-2.15-.43-3.31-.18-3.35.23-5.77,1.2-7.26.98-1.49,2.46-2.28,4.44-2.39.9-.05,1.91.08,3.03.39l-.26-5,5.48-1.12,1.21,23.15-4.69.25-.53-1.33c-.42.54-.96.97-1.62,1.3-.66.33-1.38.52-2.15.56ZM296.85,392.22c.23-.01.48-.07.76-.16.28-.1.58-.25.9-.45l-.47-8.89c-.46-.1-.88-.14-1.27-.12-.94.05-1.52.51-1.73,1.38-.21.87-.27,2.18-.18,3.91.08,1.61.27,2.75.55,3.4.28.65.76.96,1.43.92Z"/><path class="cls-4" d="M314.21,395.61c-1.21.06-2.31-.01-3.32-.23-1.01-.21-1.88-.64-2.63-1.28s-1.35-1.54-1.8-2.7c-.45-1.17-.72-2.67-.82-4.51-.16-2.98.28-5.27,1.32-6.85,1.03-1.58,2.79-2.44,5.26-2.57,2.25-.12,3.91.42,4.99,1.6s1.68,2.99,1.81,5.42c.03.57.04,1.16.03,1.77,0,.6-.05,1.16-.13,1.65l-7.33.38c.19,1.24.58,2.06,1.17,2.44.59.39,1.57.55,2.92.48.47-.02.95-.09,1.45-.2.5-.11.98-.22,1.44-.35l.22,4.17c-.71.18-1.45.34-2.23.49-.78.14-1.56.24-2.34.28ZM312.64,381.52c-.82.04-1.24,1.17-1.27,3.39l2.51-.13c-.02-.45-.06-.93-.12-1.44-.06-.51-.17-.94-.34-1.3s-.43-.53-.78-.51Z"/><path class="cls-4" d="M326.65,389.49c-.02-.35-.29-.67-.82-.97l-2.73-1.58c-.99-.58-1.73-1.23-2.19-1.95-.47-.71-.73-1.66-.79-2.85-.09-1.7.35-2.98,1.3-3.87.96-.88,2.58-1.39,4.87-1.53.86-.05,1.65-.05,2.38-.02.73.03,1.54.11,2.43.23l-.25,4.1c-.62-.05-1.17-.09-1.65-.11-.48-.03-.98-.03-1.49,0-.74.04-1.26.13-1.58.27-.32.14-.47.38-.45.73.01.2.08.37.21.5.13.13.33.26.61.41l2.79,1.61c1.01.58,1.75,1.23,2.22,1.93.47.7.73,1.63.79,2.77.1,1.82-.35,3.21-1.35,4.18-1,.96-2.68,1.52-5.05,1.66-1.04.05-2,.05-2.88-.02-.88-.07-1.67-.17-2.4-.32l.24-4.19c1.52.15,2.91.19,4.16.12,1.12-.06,1.67-.43,1.63-1.1Z"/><path class="cls-4" d="M342.31,398.44l-1.17-22.23,4.69-.25.53,1.39c.44-.56.99-.99,1.64-1.32.65-.32,1.36-.5,2.14-.54,1.12-.06,2.06.13,2.81.58.75.44,1.36,1.07,1.82,1.89.46.82.81,1.75,1.04,2.79.23,1.04.37,2.15.43,3.31.18,3.35-.22,5.77-1.19,7.26-.97,1.49-2.45,2.28-4.46,2.39-.9.05-1.91-.08-3.03-.4l.21,4.05-5.48,1.09ZM348.63,389.5c.94-.05,1.52-.51,1.73-1.38.21-.87.27-2.18.18-3.91-.08-1.61-.27-2.75-.55-3.4-.28-.65-.76-.96-1.43-.92-.2.01-.45.07-.73.16-.28.1-.59.25-.93.45l.47,8.89c.48.1.9.14,1.27.12Z"/><path class="cls-4" d="M365.54,392.92c-1.82.1-3.3-.13-4.45-.69-1.15-.55-2-1.49-2.58-2.8-.57-1.31-.91-3.05-1.03-5.22-.11-2.17.04-3.93.48-5.28.43-1.35,1.19-2.37,2.27-3.04,1.08-.67,2.53-1.06,4.35-1.15,1.84-.1,3.33.13,4.46.69,1.14.56,1.99,1.48,2.56,2.79.57,1.3.91,3.04,1.03,5.2.11,2.17-.04,3.93-.48,5.3s-1.18,2.38-2.25,3.05c-1.07.67-2.53,1.06-4.37,1.15ZM365.28,388.6c.69-.04,1.17-.43,1.41-1.2.25-.76.33-1.98.24-3.66-.09-1.7-.3-2.91-.62-3.64-.33-.73-.84-1.08-1.53-1.04-.67.04-1.13.43-1.37,1.19-.24.76-.31,1.99-.22,3.69.09,1.68.29,2.88.6,3.61.31.73.81,1.08,1.48,1.04Z"/><path class="cls-4" d="M383.24,390.49c-.55.5-1.14.9-1.78,1.2-.64.3-1.29.47-1.94.5-1.35.07-2.5-.31-3.44-1.14-.95-.83-1.46-2.13-1.56-3.88l-.66-12.66,5.52-.29.61,11.71c.07,1.25.6,1.84,1.6,1.79.39-.02.74-.15,1.06-.39l-.69-13.25,5.52-.29.92,17.63-4.69.25-.46-1.18Z"/><path class="cls-4" d="M390.85,391.29l-.92-17.63,4.69-.25.74,2.42h.06c.27-1.04.81-1.82,1.62-2.33.8-.51,1.84-.69,3.12-.53l.27,5.21c-.8.04-1.62.14-2.46.28-.84.15-1.59.33-2.23.55l.63,11.99-5.52.29Z"/><path class="cls-4" d="M415.84,384.81c-.02-.35-.29-.67-.82-.97l-2.73-1.58c-.99-.58-1.72-1.23-2.19-1.95-.47-.71-.73-1.66-.79-2.85-.09-1.7.35-2.98,1.3-3.87.96-.88,2.58-1.39,4.87-1.53.86-.04,1.65-.05,2.38-.02.73.03,1.54.11,2.43.23l-.25,4.1c-.62-.05-1.17-.09-1.65-.11-.48-.03-.98-.03-1.49,0-.74.04-1.26.13-1.58.27-.32.14-.47.38-.45.73.01.2.08.37.21.5.13.13.33.26.61.41l2.79,1.61c1.01.58,1.76,1.23,2.22,1.93.47.7.73,1.63.79,2.77.1,1.82-.35,3.21-1.35,4.17-1,.96-2.68,1.52-5.05,1.66-1.04.05-2,.05-2.88-.02-.88-.07-1.68-.17-2.4-.32l.24-4.19c1.52.15,2.91.19,4.16.12,1.12-.06,1.67-.43,1.63-1.1Z"/><path class="cls-4" d="M427.71,389.66c-.82.04-1.6-.13-2.33-.51-.74-.38-1.35-.96-1.84-1.73-.49-.77-.77-1.72-.83-2.85-.09-1.76.46-3.12,1.65-4.08,1.19-.96,2.77-1.5,4.73-1.6l1.32-.07-.09-1.69c-.03-.59-.26-.99-.68-1.18-.42-.19-.95-.27-1.58-.24-.78.04-1.52.15-2.23.33-.71.18-1.41.42-2.11.73l-.22-4.29c.91-.25,1.85-.49,2.84-.72.98-.23,1.97-.36,2.98-.42,1.12-.06,2.16.02,3.12.25.95.23,1.74.68,2.35,1.37.61.69.95,1.69,1.02,3.02l.68,12.91-4.78.25-.44-1.3c-.48.58-1.03,1.02-1.65,1.32-.62.3-1.25.47-1.88.5ZM429.65,385.5c.41-.02.77-.22,1.08-.61l-.16-3.04-.4.02c-.61.03-1.13.21-1.54.53-.41.32-.61.77-.57,1.37.03.57.21,1.01.53,1.31.32.3.68.44,1.07.42Z"/><path class="cls-4" d="M447.07,387.14c-.55.5-1.14.9-1.78,1.2-.64.3-1.29.47-1.94.5-1.35.07-2.5-.31-3.44-1.14-.95-.83-1.46-2.13-1.56-3.88l-.66-12.66,5.52-.29.61,11.71c.07,1.25.6,1.84,1.6,1.79.39-.02.74-.15,1.06-.39l-.69-13.25,5.52-.29.92,17.63-4.69.25-.46-1.17Z"/><path class="cls-4" d="M457.71,387.78l-5.03-17.41,5.67-.3,2.39,11.59h.06s1.1-11.77,1.1-11.77l5.52-.29-3.25,17.85-6.47.34Z"/><path class="cls-4" d="M476.77,387.09c-1.21.06-2.31-.01-3.32-.23-1.01-.21-1.88-.64-2.63-1.28-.75-.64-1.35-1.54-1.8-2.7-.45-1.16-.72-2.67-.82-4.51-.16-2.98.28-5.27,1.32-6.85,1.03-1.58,2.79-2.44,5.26-2.57,2.25-.12,3.91.42,4.99,1.6,1.08,1.18,1.68,2.99,1.81,5.42.03.57.04,1.16.03,1.77,0,.6-.05,1.16-.13,1.65l-7.33.38c.19,1.24.58,2.06,1.17,2.44s1.57.55,2.92.48c.47-.02.95-.09,1.45-.2.5-.11.98-.22,1.44-.35l.22,4.17c-.71.18-1.45.34-2.23.49-.78.14-1.56.24-2.34.28ZM475.2,373c-.82.04-1.24,1.17-1.27,3.39l2.51-.13c-.02-.45-.06-.93-.12-1.44-.06-.51-.17-.94-.35-1.3-.17-.36-.43-.53-.78-.51Z"/><path class="cls-4" d="M483.8,386.41l-.92-17.63,4.69-.25.74,2.42h.06c.27-1.04.81-1.82,1.61-2.33.8-.51,1.84-.69,3.12-.53l.27,5.21c-.8.04-1.62.14-2.46.28-.84.15-1.59.33-2.23.55l.63,11.99-5.52.29Z"/><path class="cls-4" d="M508.92,385.1l-5.52.29-1.17-22.41,5.48-1.03,1.21,23.15Z"/><path class="cls-4" d="M518.87,384.88c-1.21.06-2.31-.01-3.32-.23-1.01-.21-1.88-.64-2.63-1.28-.75-.64-1.35-1.54-1.8-2.7-.45-1.16-.72-2.67-.82-4.51-.16-2.98.28-5.27,1.32-6.85,1.03-1.58,2.79-2.44,5.26-2.57,2.25-.12,3.91.42,4.99,1.6s1.68,2.99,1.81,5.42c.03.57.04,1.16.03,1.77,0,.6-.05,1.16-.13,1.65l-7.33.38c.19,1.24.58,2.06,1.17,2.44.59.39,1.57.55,2.92.48.47-.02.95-.09,1.45-.2.5-.11.98-.22,1.44-.35l.22,4.17c-.71.18-1.45.34-2.23.49-.78.14-1.56.24-2.34.28ZM517.3,370.79c-.82.04-1.24,1.17-1.27,3.39l2.51-.13c-.02-.45-.06-.93-.12-1.44-.06-.51-.17-.94-.35-1.3-.17-.36-.43-.53-.78-.51Z"/><path class="cls-4" d="M536.6,383.65l-5.03-17.41,5.67-.3,2.39,11.59h.06s1.1-11.77,1.1-11.77l5.52-.29-3.25,17.85-6.47.34Z"/><path class="cls-4" d="M547.25,359.88l5.82-.31.22,4.17-5.82.31-.22-4.17ZM547.7,365.39l5.52-.29.92,17.63-5.52.29-.92-17.63Z"/><path class="cls-4" d="M559.63,382.44l-5.03-17.41,5.67-.3,2.39,11.59h.06s1.1-11.77,1.1-11.77l5.52-.29-3.25,17.85-6.47.34Z"/><path class="cls-4" d="M574.85,381.95c-.82.04-1.59-.13-2.33-.51-.74-.38-1.35-.96-1.84-1.73-.49-.77-.77-1.72-.83-2.85-.09-1.76.46-3.12,1.65-4.08,1.19-.96,2.77-1.5,4.73-1.6l1.32-.07-.09-1.69c-.03-.59-.26-.99-.68-1.18-.42-.19-.95-.27-1.58-.24-.78.04-1.52.15-2.23.33-.71.18-1.41.42-2.11.73l-.22-4.29c.91-.25,1.85-.49,2.84-.72.98-.23,1.97-.37,2.98-.42,1.12-.06,2.16.02,3.12.25.95.23,1.74.68,2.35,1.37s.95,1.69,1.02,3.02l.68,12.91-4.78.25-.44-1.3c-.48.58-1.03,1.02-1.65,1.32-.62.3-1.25.47-1.88.5ZM576.78,377.79c.41-.02.77-.22,1.08-.61l-.16-3.04-.4.02c-.61.03-1.13.21-1.54.53-.41.32-.61.78-.57,1.37.03.57.21,1.01.53,1.31.32.3.68.44,1.07.42Z"/><path class="cls-4" d="M590.13,364.36c1.16-1.02,2.44-1.57,3.85-1.65,1.41-.07,2.6.3,3.58,1.13.98.83,1.51,2.12,1.6,3.88l.66,12.6-5.52.29-.61-11.71c-.06-1.25-.66-1.84-1.78-1.78-.45.02-.84.16-1.18.4l.69,13.25-5.52.29-.92-17.63,4.69-.25.46,1.17Z"/><path class="cls-4" d="M608.1,362.22l3.34-.17.22,4.14-3.34.17.4,7.63c.03.57.2.98.51,1.23.31.25.79.36,1.45.32.33-.02.61-.05.86-.09.24-.04.45-.09.61-.14l.21,4.08c-.48.19-.99.35-1.53.5-.54.14-1.08.23-1.63.25-1.88.1-3.32-.23-4.31-.99-.99-.76-1.54-2.18-1.65-4.26l-.43-8.25-2.3.12-.22-4.14,2.3-.12-.2-3.86,5.52-.29.2,3.86Z"/><path class="cls-3" d="M512.2,176.4c1.76,2.06,2.71.47,2.71.47l-.73-1.14c1.84,1.88,2.84.3,2.84.3l-.7-1.02c2.01,1.78,2.64-.03,2.64-.03l-.75-1.02M518.21,173.96c2.17,1.48,2.63-.19,2.63-.19l-.64-.81c2.21.77,2.64-.87,2.64-.87l-.71-.63c2.39.19,2.24-1.33,2.24-1.33l-1.34-.69,1.62-.34c1.62-.34,1.01-1.13,1.01-1.13l-1.59-.62s1.24.16,2.17-.64c.94-.8.48-.96.31-1.01-.15-.05-1.24-.39-1.44-.45.1.02.47,0,1.64-.56,1.26-.61.94-1.19.84-1.33,0,0,0,0,0,0-.02-.02-.03-.03-.03-.03l-1.54-.28c.22.04.43.09.64.13-.21-.04-.42-.08-.64-.13,1.72-.11,2.26-2.06,2.26-2.06l-1.54-.17c1.33-.35,1.73-1.58,1.73-1.58l-1.88-.15s-.04,0-.1,0c.07,0,.11,0,.11,0,1.13-.12,1.71-.73,1.87-.92-.83.9-6.59.12-11.23-.77-.43-.08-.84-.16-1.24-.25h0c-.69-.14-1.33-.28-1.91-.42-.07-.02-.14-.03-.2-.05-.07-.02-.13-.03-.2-.05-.03,0-.06-.02-.1-.02-.06-.02-.13-.03-.19-.05-.25-.06-.48-.12-.69-.17,0,0-.01,0-.02,0-.14-.04-.27-.07-.39-.11-.02,0-.04-.01-.07-.02,0,0,0,0,0,0-.06-.02-.11-.03-.16-.05,0,0,0,0,0,0-.04-.01-.07-.02-.11-.03h0s-.05-.02-.07-.02c-.05-.02-.1-.03-.14-.05-.02,0-.03-.01-.05-.02-.02,0-.04-.01-.07-.02-.27-.09-.53-.18-.77-.27-.03-.01-.06-.02-.1-.04,0,0-.01,0-.02,0-.03-.01-.07-.02-.1-.04-.07-.02-.13-.05-.2-.07-.04-.02-.08-.03-.12-.05,0,0-.02,0-.02,0,0,0-.01,0-.02,0-.04-.02-.08-.03-.13-.05-.01,0-.02,0-.03-.01,0,0-.01,0-.02,0-.02,0-.05-.02-.08-.03-.06-.03-.12-.05-.19-.08-.02,0-.03-.01-.05-.02-.01,0-.03-.01-.04-.02-.02,0-.04-.02-.07-.03-.07-.03-.13-.06-.19-.08,0,0,0,0-.01,0-.03-.01-.05-.02-.08-.03-.08-.03-.16-.07-.23-.1,0,0-.01,0-.02,0,.37-.75.74-1.53,1.09-2.27.58-1.01.94-1.9,1.26-2.49.8-1.48,1.67-2.97,1.85-3.27l1.91-.7c-.63-.52-1.78-.55-2.2-.54,0,0,0,0-.01,0,0,0-.02-.04-.06-.1-.14-.25-.54-.9-1.24-1.58-.72-.69-1.77-1.41-3.18-1.74-1.88-.43-3.63.34-4.97,1.28-.21.15-.41.3-.6.45,0,0,0,0,0,0,0,0,0,0,0,0-.13.1-.25.21-.36.31-.37.32-.68.64-.92.9,0,0,0,0,0,0,0-.02,0-.03.01-.05,0-.01,0-.02,0-.03.01-.06.03-.12.04-.17,0-.03.02-.06.02-.09.01-.05.02-.1.04-.15,0,0,0-.02,0-.03,0,0,0,0,0-.01.03-.09.05-.19.08-.29.02-.06.04-.13.05-.19.05-.19.11-.38.18-.58.02-.06.04-.11.05-.17,0-.02.01-.04.02-.06.06-.18.14-.4.25-.66.02-.05.04-.1.06-.15,0,0,0,0,0,0,0,0,0,0,0,0,.29-.72.71-1.66,1.22-2.72.17-.37.36-.74.55-1.13,1.85-3.72,4.37-8.09,5.55-8.16-.24,0-1.06.07-1.78.79,0,0-.02.03-.07.09.04-.06.07-.09.07-.09l.93-1.4s-1.21-.42-2.23.32l.72-1.17s-1.88-.72-2.93.42c-.03.07-.07.14-.1.22.03-.07.07-.15.1-.22.09-.18.17-.36.26-.53-.08.17-.17.35-.26.53l.63-1.24s0-.01-.01-.04c0,0,0,0,0,0-.06-.15-.35-.7-1.54-.16-1.1.5-1.32.75-1.36.83.06-.18.38-1.13.43-1.26.05-.15.18-.55-.99-.35-1.17.2-1.73,1.16-1.73,1.16l.38-1.46s-.3-.87-1.48.07l-1.18.94.18-1.32s-1.15-.96-2.32.82l-.12-.85s-1.57-.62-2.17,1.35h0l-.3-.9s-1.61-.61-1.61,1.74h0l-.4-1.1s-1.82-.58-1.49,1.82l-.43-1.06s-1.84-.19-1.34,2.15l-.52-1.15s-1.81-.23-1.12,2.16h0l-.76-1.08s-1.95.35-.66,2.34l-1.05-.76s-1.88.06-.24,2.24h0l-1.05-.8s-1.8.12-.4,2.16h0l-.77-.59s-2.05.4-.56,2.53l-.87-.51s-1.58.65-.05,2.32h0l-.85-.41s-1.3.94-.13,2.09h0s-1.67.64-.5,1.95c0,0-.97.49-.32,1.66,0,0-1.05.74-.1,1.68,0,0-.93.83.1,1.79,0,0-.68.84.23,1.72,0,0-.7.87.32,1.5,0,0-.67.8.46,1.45,0,0-.6,1.09.51,1.42h0s-.56.85.78,1.48c0,0-.44.83.71,1.32h0s-.37.99.86,1.37h0s-.1.8.76,1.09l-16.66,9.27s-.77,2.22.17,2.36l.93.14s-.87,1.92-.18,2.21l.69.29s.27,2.6,1.85,2.4c0,0,.79,1.66,1.88,1.62l1.09-.04s-.32,1.46,1.02,1.4l1.34-.06,13.07-14.17c-.24,1.06.59,1.09.59,1.09h0c-1.02,1.46.38,1.71.38,1.71l-.66.68c-.12,1.31,1.04,1.29,1.04,1.29-.08,1.21,1.17,1.2,1.17,1.2.22,1.28,1.43,1.27,1.43,1.27.22,1.42,1.58,1.21,1.58,1.21.26,1.35,1.61.98,1.61.98.66,1.26,1.73.79,1.73.79.45,1.76,2.11.84,2.11.84.31,1.66,2.01,1.21,2.01,1.21l.17-.94c.56,2.28,2.17,1.43,2.17,1.43l.09-1.01c1.01,2.53,2.69,1.15,2.69,1.15l-.05-.99c.98,2.41,2.24,1.05,2.24,1.05l-.06-1.34c.96,2.69,2.22,1.23,2.22,1.23l-.03-1.32c1.01,2.28,2.58.95,2.58.95l-.51-1.29M522.07,171.41"/><path class="cls-1" d="M588.38,199.66s8.74-5.33,13.96-5.93c3.62-.42,7.89-.06,10.1.76.12.04.23.09.34.14,0,0,.09,1.33-.72,2.5-.81,1.17-3.22,3.55-4.62,4.18,0,0-.38,1.04-.98,1.49-.6.45-1.04,1.34-1.32,1.73-.28.39-.64,1.43-1.2,1.53,0,0-.68,1.42-1.22,1.89-.55.47-1.31.64-1.31.64,0,0,.42,1.02-.16,1.82-.58.79-.28,1.48-.29,1.7-.01.22-.18.48-.57.82-.39.34-.63,1.29-.84,1.73-.2.44-.21,1.25-.76,1.34l-.52.09s-.01.58-.63,1.01c-.62.43-1.29.36-1.65.49-.36.13-3.72.44-5.28.06-1.55-.37-1.76-.35-1.93-.51-.17-.16-1.47-1.36-1.8-2.76-.33-1.4-.92-2.56-.86-8.08l2.28-6.64Z"/><path class="cls-1" d="M587.45,199.32s-3.3-9.69-6.91-13.5c-2.51-2.64-6.02-5.11-8.24-5.89-.12-.04-.24-.08-.35-.11,0,0-.93.96-1.05,2.38-.13,1.42.2,4.79.87,6.17,0,0-.38,1.04-.2,1.78.17.73-.06,1.69-.09,2.17-.03.48-.43,1.5-.07,1.94,0,0-.39,1.52-.27,2.23.12.71.6,1.34.6,1.34,0,0-.98.52-1.04,1.5-.06.98-.73,1.31-.87,1.49-.14.18-.17.48-.08,1,.08.51-.34,1.39-.46,1.86-.13.47-.63,1.09-.27,1.52l.35.4s-.36.45-.16,1.18c.2.73.75,1.1.95,1.43.2.33,2.58,2.72,4.01,3.43,1.43.71,1.57.86,1.81.84.23-.01,2-.1,3.15-.97,1.15-.87,2.35-1.37,5.84-5.65l2.5-6.56Z"/><path class="cls-1" d="M584.49,209.89s-.26-.04-.42-.72c-.16-.67.94-3.55.94-3.55l2.29-6.51v-.49c-.02-1.03.54-1.08.88-1.02.14.03.24.07.24.07,0,0,.81.13.76,1.01,0,0-.31.71-.62.8l-1.85,5.44-.75,2.14s-1,2.84-1.47,2.83Z"/><path class="cls-3" d="M587.98,198.02c-.07-.05-.12-.14-.11-.23l.12-1.15c-.14-4.69-2.12-7.49-2.14-7.52-.08-.11-.05-.26.06-.34.11-.08.26-.05.34.06.09.12,2.09,2.95,2.23,7.81,0,.01,0,.02,0,.03l-.12,1.17c-.01.14-.13.23-.27.22-.04,0-.08-.02-.11-.04Z"/><path class="cls-1" d="M586.39,189.12c-.17.25-.49.32-.72.16-.23-.16-.29-.49-.12-.73.17-.25.49-.32.73-.16.23.16.29.49.12.73Z"/><path class="cls-3" d="M588.56,198.22c-.1-.07-.14-.21-.08-.32l.56-1.03s.01-.02.02-.03c2.87-3.92,6.13-5.12,6.27-5.17.13-.05.27.02.31.15.05.13-.02.27-.15.31h0s-3.25,1.2-6.03,4.98l-.56,1.01c-.07.12-.22.16-.33.1,0,0-.01,0-.02-.01Z"/><path class="cls-1" d="M595.06,191.83c0,.3.22.54.5.55.28,0,.51-.24.52-.54,0-.3-.22-.54-.5-.55-.28,0-.51.24-.52.54Z"/><path class="cls-2" d="M531.49,111.99s3.97-3.42,6.1-5.45c2.13-2.03,6.18-5.68,8.48-6.39,2.3-.71,5.91-.9,6.28-.57,0,0-1.44,4.02-4.2,5.88,0,0-5.07,7.43-5.67,7.98-.6.55-1.97,1.38-2.32,1.4l-.43.47s-.22,2.66-.6,3.56c-.37.9-1.18,5.74-10.52,9.06,0,0-1.49-2.55-.79-7.89,0,0,.32-2.71,1.16-3.95,1.26-1.85,2.51-4.1,2.51-4.1Z"/><path class="cls-2" d="M530.16,111.18l-5.23,8.3s-1.94.21-3.98,2.06c0,0-4.06,2.93-8.15-.11,0,0-2.71-2.02-3.42-6.57-.71-4.55,2.35-8.4,4.65-8.79,0,0-1.51-1.35-1.57-2.75-.07-1.4,1.24-5.58,1.18-8.18-.06-2.6-.33-3.82-.33-3.82,0,0,1.53-2.87,3.36-2.64,1.83.24,6.34,4.44,7.96,9.92,1.62,5.48,5.52,12.58,5.52,12.58Z"/><path class="cls-2" d="M531.91,110.74s-.58-.76-1.61.19l-5.67,8.9s-1.48,2.2-.26,2.67c1.22.46.1.04.1.04,0,0,.83-.25,2.15-3.05,1.32-2.8,1.93-2.51,2.01-2.68.08-.16,3.41-5.42,3.41-5.42,0,0,.17-.54-.13-.64Z"/><path class="cls-5" d="M531.14,110.69c-.05-.02-.09-.07-.09-.12,0-.02,0-1.87-.14-2.6-.01-.07.03-.14.1-.15.07-.01.14.03.15.1.14.75.14,2.57.14,2.65,0,.07-.06.13-.13.13-.01,0-.03,0-.04,0Z"/><path class="cls-5" d="M531.58,110.84s-.03-.02-.05-.03c-.05-.05-.05-.13,0-.18l2-2.11c.05-.05.13-.05.18,0,.05.05.05.13,0,.18l-2,2.11s-.09.05-.14.03Z"/><path class="cls-2" d="M533.89,108.7c-.06.18-.26.28-.44.22-.18-.06-.28-.26-.22-.44.06-.18.26-.28.44-.21.18.06.28.26.22.44Z"/><path class="cls-2" d="M531.37,108.05c-.06.18-.26.28-.44.22-.18-.06-.28-.26-.22-.44.06-.18.26-.28.44-.22.18.06.28.26.22.44Z"/><path class="cls-1" d="M452.63,199.8s3.06-2.63,4.69-4.19c1.64-1.56,4.75-4.37,6.52-4.91,1.77-.54,4.55-.69,4.83-.44,0,0-1.11,3.09-3.23,4.53,0,0-3.9,5.72-4.36,6.14-.46.42-1.52,1.06-1.79,1.07l-.33.36s-.17,2.05-.46,2.74c-.29.69-.91,4.41-8.09,6.97,0,0-1.15-1.96-.61-6.07,0,0,.24-2.09.89-3.04.97-1.42,1.93-3.15,1.93-3.15Z"/><path class="cls-1" d="M451.61,199.18l-4.02,6.38s-1.49.16-3.06,1.58c0,0-3.13,2.25-6.27-.08,0,0-2.08-1.56-2.63-5.06-.55-3.5,1.81-6.47,3.58-6.76,0,0-1.16-1.04-1.21-2.11-.05-1.08.96-4.29.91-6.29-.05-2-.25-2.94-.25-2.94,0,0,1.18-2.21,2.58-2.03,1.41.18,4.88,3.42,6.12,7.63,1.24,4.21,4.25,9.68,4.25,9.68Z"/><path class="cls-1" d="M452.96,198.84s-.45-.58-1.24.14l-4.36,6.85s-1.14,1.7-.2,2.05c.94.36.08.03.08.03,0,0,.64-.19,1.66-2.35,1.02-2.16,1.49-1.93,1.55-2.06.06-.13,2.62-4.17,2.62-4.17,0,0,.13-.42-.1-.49Z"/><path class="cls-3" d="M452.36,198.8s-.07-.05-.07-.09c0-.01,0-1.44-.1-2-.01-.05.03-.11.08-.12.05-.01.11.03.12.08.11.58.11,1.98.11,2.04,0,.05-.04.1-.1.1-.01,0-.02,0-.03,0Z"/><path class="cls-3" d="M452.7,198.92s-.03-.01-.04-.02c-.04-.04-.04-.1,0-.14l1.54-1.62s.1-.04.14,0c.04.04.04.1,0,.14l-1.54,1.62s-.07.04-.1.03Z"/><path class="cls-1" d="M454.47,197.27c-.05.14-.2.21-.34.17-.14-.05-.21-.2-.17-.34.05-.14.2-.21.34-.17.14.05.21.2.17.34Z"/><path class="cls-1" d="M452.54,196.77c-.05.14-.2.21-.34.17-.14-.05-.21-.2-.17-.34.05-.14.2-.21.34-.17.14.05.21.2.17.34Z"/><path class="cls-5" d="M435.71,147.35c.85-1.1,1.34-2.12,1.74-2.75.79-1.24,1.65-2.47,1.82-2.72l1.71-.49c-.51-.5-1.51-.59-1.88-.61,0,0,0,0,0,0,0,0-.01-.03-.04-.09-.1-.22-.41-.82-.98-1.45-.58-.65-1.44-1.34-2.65-1.72-1.6-.5-3.18.05-4.4.78-.19.11-.38.23-.55.35,0,0,0,0,0,0,0,0,0,0,0,0-.12.08-.23.16-.34.25-.37.28-.69.56-.93.79l-1.28.89c-.14-.15-.29-.32-.46-.51-.04-.04-.08-.09-.12-.13-.02-.02-.03-.04-.05-.06-.04-.05-.09-.1-.13-.15,0-.01-.02-.02-.03-.03-.08-.09-.16-.18-.24-.27-.03-.04-.06-.07-.1-.11-.04-.04-.07-.08-.11-.12-.28-.32-.57-.66-.86-1-.57-.67-1.13-1.37-1.59-2h0c-.29-.39-.54-.75-.71-1.06-.03-.05-.06-.11-.1-.17-.6-1.09-1.72-3.53-2.66-5.89-.06-.14-.11-.28-.17-.42-.86-2.2-1.52-4.26-1.4-5.01.24-1.56-1.03.38-1.34,2.05h0s0,0,0,0h0s0,0,0,0h0c-.01.07-.03.14-.03.2,0,0-.03-.08-.07-.22,0,0,0,0,0-.01-.25-.76-.98-3.14-.87-4.01,0,0-.68.9-1.13,1.94,0,.01,0,.02-.01.03-.22.52-.38,1.06-.36,1.55,0,.03,0,.06,0,.09,0,.05,0,.1.02.14,0,0-.03-.04-.08-.12-.01-.02-.03-.05-.05-.08-.15-.26-.43-.74-.76-1.34-.02-.03-.03-.06-.05-.09-.4-.73-.85-1.63-1.22-2.5,0,0-1.07,1.06-.98,2.84,0,.07,0,.15.01.22,0,.05.01.1.02.15l-.07-.11-.11-.18-1.34-2.13s-1.39.95-.75,3.96c0,.01,0,.03.01.05,0,.03.01.05.02.08.02.07.03.13.05.2,0,0,0,.02,0,.02l-.02-.02-.33-.32-2.27-2.19s-.97,2.03.57,4.04c.08.11.17.22.27.33l-.3-.12-2.2-.89s.16,1.95,1.54,3.6c0,0-1.6-.58-2.28-.82-.68-.24-.03,3.1,2.01,3.36-.1.05-2.49,1.22.22,3.39,0,0-1.42,1.82.66,2.88,0,0-1.47,1.1.64,2.89,0,0-.38,1.64,1.07,2.42.06.03.12.06.18.09,0,0,0,.12,0,.3.04.68.3,2.31,1.78,2.32.12,0,.24-.01.38-.03,0,0,.09.3.33.6.22.27.55.55,1.04.64.08.02.16.02.25.02.1,0,.2,0,.31-.02.05.04.09.09.14.13-.04.05-1.17.3-1.48.38-.9.02-2.01.05-3.19.08-3.5.08-7.56.18-8.11.2-.38.01-.47.19-.43.4.06.35.43.79.43.79,0,0-1.52.11-1.47,1.06,0,.07.01.14.04.22.08.32.38.58.76.8-.1.05-.17.1-.22.14-.4.34-.58.65-.53.94.05.29.33.46.46.53-.14.2-.18.41-.12.61.11.39.56.64.75.74-.1.08-.16.15-.17.2-.06.66.81.97,1.11,1.06-.43.32-.4.41-.39.47.02.08.1.12.24.12.12,0,.27-.02.46-.05-.03.09-.1.31-.1.56,0,.17.03.35.13.5.15.22.4.34.76.36h.03s.07,0,.11,0c-.01.14-.02.45.2.72.22.29.62.46,1.16.51.02,0,.04,0,.06,0,.17,0,.42-.05.73-.14v.07s0,0,0,0c0,0,0,.04,0,.08h0c0,.26.09,1,.74,1.13,0,0,.02,0,.03,0,.12,0,.41-.11.81-.29-.02.24-.02.76.32,1.05.15.13.35.2.59.2.13,0,.28-.02.45-.06.18-.05.47-.18.82-.38-.21.72-.31,1.48.04,1.9.05.06.11.11.16.16.77.6,1.76-.5,1.76-.5,0,0,.15.55.41.8.16.15.36.19.6-.09.34-.41,2.83-3.47,4.98-6.12.41-.5.8-.98,1.16-1.43-.01.03-.02.05-.03.08-.24.62-.14,1.04.1,1.32.35.4.99.51,1.31.53.12.01.19.01.19.01-.03.04-.06.09-.09.13-.15.23-.25.46-.3.67-.02.1-.04.19-.05.28-.05.54.17.97.43,1.28.29.34.6.52.6.52-.07.13-.12.26-.15.39-.45,1.57,1.39,2.3,2.18,2.54.21.06.34.09.34.09.02.08.03.15.05.22.48,1.75,2.52,1.81,2.52,1.81,1.45,2.72,3.2,1.49,3.2,1.49.62,2.49,3.18,1.5,3.18,1.5,1.72,3.47,3.83,1.27,3.91,1.18-.32,2.23,3.4,3.86,3.33,3.07-.07-.79-.26-2.64-.26-2.64,1.52,1.93,3.76,2.64,3.76,2.64l-.38-2.58-.05-.35c.1.14.2.26.3.38,1.89,2.19,4.57,1.74,4.57,1.74l-1.87-3.02-.27-.44-.02-.03s.02,0,.02.01c.08.04.15.07.22.11.03.01.06.03.09.04.02,0,.04.02.05.02,3.34,1.52,4.88.32,4.88.32l-2.1-2.01-.18-.17-.11-.11c.06.02.11.04.17.06.09.03.17.06.26.08,2.06.6,3.64-.24,3.64-.24-.91-.64-1.82-1.37-2.56-1.99-.03-.02-.06-.05-.09-.08-.6-.51-1.09-.94-1.34-1.18-.03-.03-.06-.05-.08-.08-.07-.06-.11-.1-.12-.11.05.02.1.04.16.05.03.01.07.02.1.03.56.15,1.25.14,1.93.05.01,0,.03,0,.05,0,1.35-.18,2.62-.65,2.62-.65-1.05-.13-3.62-1.57-4.44-2.04,0,0-.01,0-.02,0-.15-.09-.24-.14-.24-.14.08.01.16.02.25.02h0s0,0,0,0h0s0,0,0,0h0c2.06.14,4.72-.66,2.82-.84-.73-.07-2.32-.91-4.12-2.03-.7-.43-1.43-.91-2.15-1.4-1.49-1-2.97-2.06-4.12-2.93-.47-.36-.88-.68-1.22-.96-.22-.18-.41-.34-.56-.47-.09-.08-.17-.16-.27-.25-.15-.15-.32-.32-.49-.5-.05-.06-.11-.12-.16-.18-.04-.05-.08-.09-.13-.14-.03-.04-.07-.08-.1-.11-.23-.26-.47-.54-.72-.84-.05-.06-.1-.12-.15-.18-.13-.16-.27-.33-.4-.5-.05-.06-.1-.13-.15-.19-.18-.23-.37-.47-.55-.7-.17-.22-.34-.44-.51-.66,0-.03.01-.05.02-.08.05-.21.8-.95.82-1.16"/><path class="cls-3" d="M323.18,221.03c.41-.07.81.02,1.2.13.65.19,1.27.45,1.89.71.57.24,1.14.5,1.72.72.12.05.24.08.36.11.06.02.13.03.17-.02.09-.12.24-.17.34-.28.05-.06.11-.12.19-.14.08-.02.13.06.2.05.04-.05.01-.13.07-.16.07-.04.11.03.15.06.08.04.11-.02.14-.06.05-.08.11-.09.18-.03.04.03.09.07.14.04.12-.07.21,0,.31.05.08.04.17.08.27.12.04-.05.04-.09.03-.13-.03-.23.09-.4.26-.53.11-.09.25-.13.38-.19.07-.03.13-.01.19.02.04.03.09.06.13.08.08.05.14.04.19-.04.05-.08.09-.15.13-.23.02-.04.04-.1.11-.08.06.02.07.07.07.13,0,.11-.04.2-.09.29-.09.13-.08.13.04.22.22.16.42.33.56.56.04.06.09.1.15.12.06.02.12.07.08.13-.07.13,0,.24.04.36.12.31.17.63.03.95-.01.03-.02.06-.03.08-.03.09,0,.16.08.2.19.09.37.15.56-.01.04-.04.1-.09.15-.04.06.06.03.12,0,.18-.03.05-.08.09-.13.12-.18.1-.37.11-.53,0-.24-.16-.49-.19-.76-.15-.03,0-.06,0-.09,0q-.2,0-.23.21c-.02.08-.03.16-.05.24-.02.09-.04.2-.13.25-.14.08-.09.26-.21.35-.02.02,0,.07.03.1.05.05.1.11.16.15.08.06.14.13.19.22.02.04.05.08,0,.12-.03.02-.07.01-.1-.01-.13-.09-.25-.18-.34-.31-.05-.07-.11-.12-.2-.1-.1.03-.1.12-.12.19,0,.04,0,.08,0,.11.06.24.1.5.3.68.04.04.09.09.04.15-.05.06-.12.04-.18,0-.04-.03-.08-.07-.11-.1-.11-.14-.19-.3-.23-.47-.01-.06-.03-.13-.06-.19-.04-.08-.1-.13-.19-.06-.05.03-.1.06-.16.07-.27.01-.54.03-.81.05-.14,0-.17.04-.17.2.02.36-.05.71-.06,1.06,0,.1-.02.21-.06.3-.1.25-.09.52-.03.76.06.25.15.51.24.76.06.18.15.33.37.33.04,0,.1.02.1.07,0,.06-.05.09-.1.1-.04,0-.09,0-.13,0-.16-.03-.3-.11-.37-.26-.18-.39-.36-.78-.31-1.23,0-.02,0-.04-.02-.08-.13.43-.15.86-.19,1.28-.02.22.06.42.25.56.03.02.06.04.08.07.01.01.02.05,0,.06,0,.01-.04.03-.06.03-.04,0-.07-.01-.11-.03-.27-.12-.44-.42-.42-.72.01-.18.04-.37.06-.55,0-.04.02-.09-.04-.11-.06-.02-.12-.03-.14-.09-.02-.08.04-.12.08-.17.03-.03.07-.07.03-.11-.16-.15-.1-.31-.04-.47.03-.07.03-.12-.03-.19-.06-.07-.1-.19-.04-.31.14-.27.23-.56.34-.84.05-.12.09-.25.12-.38.02-.06.06-.14-.02-.18-.07-.03-.12.05-.16.1-.13.16-.25.33-.33.53-.09.23-.23.43-.35.64-.06.1-.12.21-.18.31-.4.7-.97,1.2-1.7,1.53-.14.06-.28.09-.43.1-.27.01-.36-.04-.48-.3-.17-.38-.22-.78-.21-1.19.02-.67.23-1.27.61-1.8.31-.44.71-.82,1.17-1.11.27-.17.54-.34.81-.5.14-.09.12-.24.16-.37.01-.05-.05-.07-.09-.06-.17,0-.34.05-.5.1-.25.08-.5.15-.75.2-.75.15-1.46-.01-2.12-.36-.64-.33-1.1-.86-1.5-1.45-.12-.18-.19-.37-.23-.57-.08-.38.06-.58.44-.65Z"/><path class="cls-3" d="M366.79,237.58c-.86-.15-1.72-.18-2.59-.09-.39.04-.44,0-.44-.39,0-.33,0-.66-.27-.91-.09-.08-.07-.16.03-.22.08-.05.21-.16.16-.18-.25-.12-.04-.25-.04-.38,0-.13-.05-.25-.2-.23-.23.03-.24-.09-.22-.26,0-.06.02-.14-.08-.16-.02.02-.06.05-.07.08-.11.45-.31.37-.66.28-.05-.01-.09-.05-.14-.07-.3-.14-.3-.14-.46.13-.12.19-.24.35-.5.3-.13-.02-.23.05-.33.11-.19.12-.36.26-.53.41-.2.19-.22.19-.38-.04-.24-.36-.48-.72-.76-1.06-.39-.47-.86-.81-1.44-1-.59-.19-.94.1-.85.71.09.64.36,1.18.92,1.54.38.25.79.41,1.23.52.15.04.3.07.43.17-.12.12-.26.11-.38.15-.2.06-.42.05-.63.06-.85.04-1.67.21-2.47.49-.2.07-.39.16-.54.31-.32.33-.29.6.14.75.68.23,1.38.31,2.09.07.48-.16.9-.44,1.34-.68.11-.06.2-.17.39-.13-.17.32-.29.66-.51.92-.51.6-.74,1.3-.87,2.04-.1.58,0,1.13.28,1.64.18.33.44.42.8.3.09-.03.17-.07.25-.11.87-.4,1.44-1.08,1.83-1.93.06-.13.08-.37.27-.33.15.03.07.25.08.39.01.45-.06.89-.08,1.34-.03.67.41,1.08.73,1.57.02.03.07.05.1.04.06-.01.07-.08.05-.13-.17-.52-.27-1.06-.2-1.61.05-.39,0-.78.13-1.16.11.25.18.52.13.8-.12.61.07,1.17.22,1.74.03.12.07.25.22.31.03-.22.03-.22-.03-.42-.23-.85-.27-1.7-.17-2.57.04-.33.09-.68-.04-.98-.16-.38-.08-.62.26-.8.03-.02.06-.05.09-.08.13-.17.27-.15.44-.05.46.28.97.45,1.5.59,1.02.27,1.96-.01,2.85-.47.43-.22.43-.58.03-.87-.33-.24-.71-.4-1.12-.47Z"/><path class="cls-5" d="M492.88,189.77c.11-.29.31-.42.69-.41-.42-.45-.51-.99-.85-1.38-.12-.14-.2-.24.02-.39.17-.12.09-.26-.1-.3-.16-.03-.33-.06-.47-.14-.43-.24-.88-.29-1.33-.1-.44.18-.79.45-.85.99-.02.2-.19.14-.3.05-.11-.09-.12-.23-.15-.35-.14-.54-.26-1.07-.41-1.61-.22-.8-.47-1.59-.89-2.32-.31-.53-.75-.92-1.32-1.13-.51-.19-.87,0-1.03.52-.06.19-.1.4-.11.6-.1,1.57.34,2.95,1.51,4.05.13.13.27.26.39.4.1.12.31.22.21.41-.1.2-.32.14-.5.11-.04,0-.07-.01-.11-.02-.9-.1-1.77-.38-2.65-.54-1.07-.2-2.12-.23-3.18.05-.51.13-.97.36-1.32.76-.31.34-.32.62-.06,1,.12.19.29.33.47.46.42.31.88.54,1.37.72,1.29.5,2.55.53,3.74-.3.3-.21.64-.37.99-.49.1-.04.22-.1.3.02.09.12.05.26-.05.35-.25.25-.5.49-.77.72-.72.64-1.26,1.4-1.51,2.33-.23.86-.23,1.72.2,2.53.23.42.44.54.9.4,1.04-.31,1.92-.84,2.49-1.81.33-.56.64-1.14.95-1.72-.28.8-.51,1.6-.79,2.4-.51,1.48-.65,1.97-.54,2.42.12-.05.15-.15.19-.26.17-.51.38-1,.67-1.45.4-.61.62-1.29.69-2.02.04-.39.32-.71.36-1.1.01-.12.13-.18.23-.21.45-.13.82-.39,1.16-.72.15.1.17.19.2.28.16.42.39.79.68,1.13.25.29.57.46.92.6.12.05.27.09.33-.07.05-.13-.08-.19-.18-.23-.18-.09-.36-.18-.51-.32-.58-.57-.84-1.29-.97-2.07-.02-.13-.01-.26.05-.38.09-.17.23-.19.34-.04.12.17.2.35.31.52.15.24.36.42.63.52.14.05.26,0,.33-.13.07-.13-.02-.22-.13-.25-.36-.08-.49-.37-.59-.67-.09-.27-.22-.53-.45-.83.46-.02.69-.26.81-.58Z"/><path class="cls-3" d="M476.82,215.72c-.64.14-.71.12-.86-.52-.15-.66-.25-1.34-.35-2.01-.1-.69-.35-1.32-.81-1.85-.64-.74-1.22-.69-1.65.18-.53,1.06-.63,2.15-.11,3.26.16.35.36.68.51,1.03.19.43.08.61-.4.63-.35.02-.71-.02-1.06-.07-.73-.11-1.46-.24-2.19-.39-.55-.11-1.06-.03-1.56.2-.37.17-.83.32-.86.8-.03.49.35.79.73,1.05.35.24.73.38,1.15.44.56.07,1.12.05,1.68-.06.23-.04.46-.1.7-.12.17-.02.39-.01.45.2.06.24-.17.27-.33.33-1.19.47-1.85,1.47-2.35,2.54-.46.96.22,1.79,1.29,1.72.33-.02.63-.15.92-.3.58-.3,1.15-.6,1.85-.97-.43.76-.69,1.42-.91,2.09-.04.14-.11.32.06.4.2.1.34-.06.41-.23.34-.76.83-1.44,1.06-2.25.06-.2.06-.44.35-.43.46.03.46-.11.2-.42-.09-.11.02-.23.13-.27.22-.09.47-.15.68,0,.22.16.06.39,0,.57-.33,1.05-.67,2.09-1.01,3.13-.06.18-.24.36-.06.57.15.03.25-.05.29-.16.49-1.27,1.22-2.45,1.51-3.79.11-.49.32-.79.77-.98.47-.19.87-.52,1.19-.92.26-.33.55-.59,1.04-.58-.13-.47-.27-.85-.3-1.26-.09-1.19-1-1.82-2.15-1.56Z"/><path class="cls-5" d="M459.13,155.53c.23.16.49.26.77.29.38.05.75.03,1.12-.04.16-.03.31-.06.47-.08.12-.01.26,0,.3.13.04.16-.12.18-.22.22-.8.32-1.24.99-1.57,1.7-.3.64.15,1.2.86,1.15.22-.01.42-.1.62-.2.39-.2.77-.4,1.24-.65-.29.51-.46.95-.61,1.4-.03.09-.07.21.04.27.14.07.23-.04.27-.15.23-.51.56-.96.71-1.5.04-.13.04-.3.23-.29.31.02.31-.07.13-.28-.06-.07.01-.15.09-.18.15-.06.32-.1.45,0,.14.11.04.26,0,.38-.22.7-.45,1.4-.67,2.09-.04.12-.16.24-.04.38.1.02.17-.03.19-.11.33-.85.82-1.64,1.01-2.54.07-.33.21-.53.52-.65.32-.13.58-.35.79-.61.18-.22.36-.39.69-.39-.09-.31-.18-.57-.2-.84-.06-.8-.67-1.22-1.44-1.04-.43.09-.48.08-.57-.35-.1-.44-.17-.9-.24-1.35-.07-.46-.24-.88-.54-1.24-.43-.5-.81-.46-1.1.12-.35.71-.42,1.44-.07,2.18.11.23.24.46.34.69.12.29.06.41-.27.42-.24.01-.48-.01-.71-.05-.49-.08-.98-.16-1.46-.26-.37-.07-.71-.02-1.04.13-.25.12-.56.21-.58.54-.02.33.24.53.49.7Z"/><path class="cls-5" d="M375.1,221.89c.21.06.25-.33.37-.4s.18.05.19.14c.02.12-.07.25-.11.36-.04.09-.1.14-.14.23-.04.07-.05.16-.09.23-.06.13-.12.16-.11.3s.08.22.1.36.05.25.05.38c0,.25,0,.49,0,.74,0,.12-.03.22-.09.32s-.17.25-.26.31c-.12.08-.24.06-.37.1-.11.03-.09.04-.21,0-.09-.03-.17-.05-.26-.08-.26-.09-.39-.27-.58-.45.22.11.25.35.3.55.01.04.03.05.04.11,0,.04,0,.09,0,.13,0,.1.01.16.04.24.04.11.06.23.14.32.06.06.13.11.19.17.12.1.27.23.36.36.05.07.1.12.09.22,0,.14-.09.1-.21.1-.24,0-.48-.04-.61-.26s-.21-.57-.25-.83c-.02-.14-.1-.28-.1-.43,0-.1.03-.22,0-.31-.16-.02-.11.55-.09.65.02.12.07.21.12.32s.05.2.08.3c.03.08.12.15.18.2.07.07.11.13.16.2.09.12.29.33.26.5-.21.06-.48-.02-.67-.1-.25-.12-.31-.29-.47-.5-.09-.13-.21-.26-.28-.4s-.06-.3-.06-.45c0-.05.03-.2,0-.24-.04-.05-.18-.03-.25-.03-.29,0-.56.13-.84.15-.12.01-.36-.06-.47,0-.11.07-.01.14.05.2.14.14.18.27.25.44.06.15.2.25.24.41.03.12.01.17.11.27.08.08.41.22.41.34-.25.09-.56.07-.82.06s-.42-.19-.58-.39-.15-.46-.12-.69c.02-.14.1-.31.1-.44-.1.27-.21.53-.31.79-.06.16-.1.32-.19.47-.13.22-.21.51-.22.76-.01.3-.15.56-.15.87,0,.38.02.71-.1,1.07-.05.14-.08.34-.15.46s-.26.15-.4.15c-.07,0-.19.03-.25-.02-.05-.04-.06-.27-.07-.33-.08-.38-.01-.72.09-1.09.14-.5.34-.96.48-1.46.05-.17.09-.34.1-.52.01-.13.03-.25.09-.36.03-.05.06-.11.1-.15.02-.05.03-.11.03-.16.03-.08.08-.17.12-.24.06-.12.26-.32.23-.45-.07-.02-.21.07-.26.1-.2.1-.41.2-.58.35-.27.23-.5.52-.63.85-.2.49-.5,1.01-.95,1.3-.25.16-.5.32-.78.44-.12.05-.24.1-.35.17-.1.06-.17.11-.3.14-.3.07-.8.17-1.04-.09-.12-.13-.14-.34-.15-.51-.01-.38.07-.73.1-1.1.03-.42.04-.83.16-1.24.1-.35.33-.63.51-.95.31-.54.83-1.01,1.35-1.35.28-.18.57-.38.86-.53.21-.11.45-.24.69-.28-.23.02-.46-.03-.69-.05-.27-.02-.53-.04-.8-.08-.33-.06-.66-.11-.99-.2s-.63-.24-.89-.49c-.34-.33-.57-.78-.85-1.16s-.59-.77-.78-1.19c-.07-.14-.04-.29-.06-.43-.02-.1-.04-.19-.04-.3,0-.27.16-.39.38-.54.1-.07.21-.15.32-.18.14-.03.34-.01.49,0,.25.02.43.15.63.3.22.18.44.32.69.46.79.43,1.62.76,2.37,1.27.22.15.43.32.65.46.16.11.32.23.45.38.12.13.14.23.19.39.04.11.09.18.2.2.32.07.58-.12.86-.21.12-.04.24-.08.36-.13.18-.07.34-.07.53-.07s.41-.02.61.03c.22.05.35.2.52.32.11.08.24.14.36.21.09.05.2.18.32.14.02,0,.08-.09.1-.11.09-.09.19-.13.31-.18.12-.05.25-.1.37-.15.09-.04.12-.05.21-.02.08.03.22.11.28.18.04.05.05.16.1.2.1.07.26-.09.34-.14.06-.04.12-.08.19-.11.14-.08.27-.05.43-.05"/><path class="cls-3" d="M606.33,119.01c1.18-1.52,1.84-2.92,2.39-3.78,1.09-1.7,2.27-3.41,2.51-3.75l2.35-.67c-.71-.68-2.08-.82-2.59-.84,0,0,0,0-.01,0,0,0-.02-.05-.06-.13-.14-.31-.56-1.13-1.34-2-.8-.89-1.99-1.85-3.66-2.37-2.21-.69-4.37.07-6.06,1.08-.27.16-.52.32-.76.49,0,0,0,0,0,0,0,0,0,0,0,0-.16.11-.32.23-.46.34-.52.39-.95.77-1.28,1.09l-1.76,1.23c-.19-.21-.4-.44-.64-.71-.05-.06-.11-.12-.16-.18-.02-.03-.05-.05-.07-.08-.06-.07-.12-.13-.18-.2-.01-.01-.03-.03-.04-.04-.11-.12-.22-.25-.33-.37-.04-.05-.09-.1-.13-.15-.05-.06-.1-.11-.15-.17-.38-.44-.78-.9-1.18-1.38-.78-.93-1.56-1.89-2.19-2.75h0c-.4-.54-.74-1.04-.98-1.46-.04-.07-.09-.15-.13-.23-.82-1.5-2.37-4.86-3.66-8.12-.08-.19-.15-.39-.23-.58-1.18-3.03-2.09-5.87-1.93-6.9.34-2.15-1.41.52-1.84,2.82h0s0,0,0,0h0s0,0,0,0h0c-.02.09-.04.19-.05.28,0,0-.04-.11-.1-.31,0,0,0-.01,0-.02-.34-1.05-1.35-4.32-1.2-5.52,0,0-.94,1.24-1.56,2.67,0,.02-.01.03-.02.05-.3.71-.52,1.47-.5,2.13,0,.04,0,.09,0,.12,0,.07.01.13.02.19,0,0-.04-.06-.1-.17-.02-.03-.04-.07-.07-.11-.21-.36-.6-1.02-1.05-1.85-.02-.04-.05-.08-.07-.12-.55-1.01-1.17-2.24-1.69-3.44,0,0-1.48,1.46-1.35,3.92,0,.1.01.2.02.31,0,.06.02.13.03.2l-.1-.15-.15-.25-1.84-2.94s-1.91,1.31-1.04,5.46c0,.02.01.04.01.06,0,.04.02.07.02.1.02.09.04.19.07.28,0,0,0,.02,0,.03l-.03-.03-.45-.44-3.13-3.01s-1.33,2.79.79,5.56c.11.15.24.3.38.46l-.42-.17-3.04-1.23s.22,2.69,2.12,4.96c0,0-2.21-.8-3.14-1.12-.94-.33-.04,4.27,2.77,4.62-.13.07-3.43,1.68.3,4.67,0,0-1.95,2.5.91,3.97,0,0-2.02,1.52.88,3.98,0,0-.53,2.26,1.47,3.34.08.04.16.09.25.12,0,0,0,.16.01.41.06.94.41,3.19,2.46,3.19.16,0,.34-.02.52-.04,0,0,.13.41.46.83.3.38.76.76,1.43.88.11.02.23.03.35.03.13,0,.27,0,.42-.02.07.06.13.13.2.17-.05.07-1.61.41-2.04.52-1.24.03-2.77.07-4.4.11-4.83.12-10.42.25-11.18.27-.52.01-.64.26-.59.56.08.48.59,1.09.59,1.09,0,0-2.09.15-2.03,1.46,0,.09.02.19.05.3.12.43.52.8,1.04,1.1-.13.07-.24.14-.31.2-.55.47-.79.9-.72,1.3.08.4.45.64.64.73-.19.28-.24.56-.16.84.15.54.77.89,1.04,1.02-.14.11-.23.21-.23.28-.09.9,1.12,1.34,1.53,1.46-.59.44-.55.57-.53.65.03.11.14.16.33.16.16,0,.37-.02.63-.07-.05.13-.14.43-.14.77,0,.23.04.48.18.69.2.3.55.46,1.05.49h.04s.09,0,.15-.01c-.02.19-.02.62.27,1,.31.4.85.64,1.6.7.02,0,.05,0,.08,0,.23,0,.57-.07,1.01-.2v.09s0,0,0,0c0,0,0,.05,0,.12h0c.01.36.13,1.38,1.01,1.56.01,0,.02,0,.04,0,.17,0,.56-.15,1.11-.4-.03.32-.02,1.04.44,1.44.21.18.48.27.81.27.19,0,.39-.03.62-.08.25-.06.64-.25,1.13-.52-.3.99-.43,2.04.06,2.62.07.09.15.16.22.22,1.06.83,2.43-.69,2.43-.69,0,0,.21.76.56,1.1.22.21.5.26.82-.13.47-.57,3.9-4.79,6.86-8.43.56-.69,1.1-1.35,1.6-1.97-.02.04-.03.07-.04.11-.33.86-.2,1.43.13,1.81.48.55,1.36.7,1.8.74.16.02.27.01.27.01-.04.06-.08.12-.12.18-.21.32-.34.63-.42.92-.03.13-.06.26-.07.38-.07.75.24,1.34.59,1.76.39.47.83.72.83.72-.09.18-.16.36-.21.54-.62,2.16,1.91,3.17,3,3.49.29.09.47.12.47.12.02.11.04.21.07.3.66,2.42,3.47,2.49,3.47,2.49,2,3.75,4.4,2.05,4.4,2.05.85,3.43,4.39,2.07,4.39,2.07,2.37,4.77,5.27,1.75,5.39,1.63-.44,3.07,4.68,5.31,4.58,4.23-.1-1.08-.36-3.64-.36-3.64,2.09,2.65,5.18,3.64,5.18,3.64l-.52-3.56-.07-.49c.14.19.28.37.42.53,2.61,3.02,6.29,2.4,6.29,2.4l-2.58-4.16-.37-.6-.03-.04s.02,0,.03.01c.11.05.21.1.31.15.04.02.08.04.12.05.03.01.05.02.07.03,4.6,2.09,6.72.44,6.72.44l-2.89-2.77-.24-.23-.15-.15c.08.03.15.06.23.08.12.04.24.08.35.11,2.84.82,5.01-.33,5.01-.33-1.25-.88-2.5-1.88-3.52-2.75-.05-.03-.09-.07-.13-.11-.83-.7-1.5-1.3-1.85-1.62-.04-.04-.08-.07-.12-.1-.09-.09-.15-.14-.16-.15.07.03.14.05.22.08.05.02.1.03.14.04.78.21,1.73.19,2.66.07.02,0,.04,0,.06,0,1.86-.25,3.61-.9,3.61-.9-1.45-.17-4.99-2.16-6.12-2.81,0,0-.01,0-.02,0-.21-.12-.33-.19-.33-.19.11.01.23.02.34.03h0s0,0,0,0h.01s0,0,0,0h0c2.83.2,6.5-.91,3.88-1.15-1.01-.1-3.19-1.25-5.68-2.8-.96-.6-1.97-1.25-2.97-1.92-2.06-1.38-4.09-2.84-5.67-4.04-.65-.49-1.22-.94-1.68-1.32-.3-.25-.56-.47-.77-.65-.12-.11-.24-.22-.37-.34-.21-.21-.44-.44-.67-.69-.07-.08-.15-.16-.22-.24-.06-.06-.11-.13-.17-.19-.05-.05-.09-.11-.14-.16-.32-.36-.65-.75-.99-1.15-.07-.08-.13-.16-.2-.24-.18-.22-.37-.45-.55-.68-.07-.09-.14-.18-.21-.26-.25-.32-.51-.64-.75-.96-.24-.31-.47-.61-.7-.91,0-.04.02-.07.03-.11.07-.29,1.1-1.31,1.14-1.6"/><path class="cls-5" d="M432.12,233.32c.95.88,1.32.07,1.32.07l-.41-.5c.98.8,1.37-.02,1.37-.02l-.39-.45c1.06.74,1.26-.16,1.26-.16l-.42-.44M434.85,231.82c1.12.58,1.25-.24,1.25-.24l-.35-.35c1.1.25,1.21-.56,1.21-.56l-.37-.26c1.15-.04,1-.76,1-.76l-.68-.26.75-.25c.75-.25.42-.6.42-.6l-.79-.21s.6,0,1-.43c.4-.44.18-.48.09-.5-.08-.01-.61-.12-.71-.14.05,0,.23-.02.75-.36.57-.36.38-.62.32-.68,0,0,0,0,0,0,0,0-.01-.01-.01-.01l-.75-.05c.11,0,.21.02.31.03-.1,0-.2-.02-.31-.03.81-.15.96-1.11.96-1.11h-.74c.62-.24.73-.84.73-.84l-.91.03s-.02,0-.05,0c.03,0,.05,0,.05,0,.53-.12.78-.44.84-.54-.34.48-3.14.43-5.4.26-.21-.02-.41-.03-.61-.05h0c-.33-.03-.65-.06-.93-.09-.03,0-.07,0-.1-.01-.03,0-.06,0-.1-.01-.02,0-.03,0-.05,0-.03,0-.06,0-.09-.01-.12-.01-.23-.03-.34-.04,0,0,0,0,0,0-.07,0-.13-.02-.19-.03-.01,0-.02,0-.03,0,0,0,0,0,0,0-.03,0-.05,0-.08-.01,0,0,0,0,0,0-.02,0-.04,0-.05,0h0s-.02,0-.04,0c-.02,0-.05,0-.07-.01,0,0-.02,0-.02,0-.01,0-.02,0-.03,0-.13-.03-.26-.06-.38-.09-.02,0-.03,0-.05-.01,0,0,0,0,0,0-.02,0-.03,0-.05-.01-.03,0-.07-.02-.1-.02-.02,0-.04-.01-.06-.02,0,0,0,0-.01,0,0,0,0,0,0,0-.02,0-.04-.01-.06-.02,0,0-.01,0-.02,0,0,0,0,0-.01,0-.01,0-.03,0-.04,0-.03,0-.06-.02-.09-.03,0,0-.02,0-.03,0,0,0-.01,0-.02,0-.01,0-.02,0-.03,0-.03,0-.07-.02-.1-.03,0,0,0,0,0,0-.01,0-.03,0-.04-.01-.04-.01-.08-.02-.11-.03,0,0,0,0-.01,0,.13-.38.27-.77.39-1.14.22-.51.34-.96.46-1.26.3-.75.63-1.51.7-1.66l.87-.44c-.33-.21-.88-.16-1.08-.13,0,0,0,0,0,0,0,0-.01-.02-.03-.05-.08-.11-.31-.4-.68-.68-.38-.29-.92-.57-1.62-.65-.92-.1-1.71.36-2.3.89-.09.08-.18.17-.26.25,0,0,0,0,0,0,0,0,0,0,0,0-.06.06-.11.11-.16.17-.16.17-.29.34-.39.48,0,0,0,0,0,0,0,0,0-.02,0-.02,0,0,0-.01,0-.02,0-.03,0-.06.01-.09,0-.02,0-.03,0-.04,0-.02,0-.05,0-.07,0,0,0,0,0-.01,0,0,0,0,0,0,0-.05.01-.09.02-.14,0-.03,0-.06.01-.09.02-.09.03-.19.05-.29,0-.03.01-.06.02-.08,0,0,0-.02,0-.03.02-.09.05-.2.08-.33,0-.02.01-.05.02-.07,0,0,0,0,0,0,0,0,0,0,0,0,.1-.36.25-.83.43-1.36.06-.18.13-.38.2-.57.67-1.88,1.64-4.1,2.19-4.2-.11.01-.5.09-.8.48,0,0,0,.02-.03.05.02-.03.03-.05.03-.05l.36-.72s-.6-.13-1.05.28l.28-.6s-.94-.24-1.37.36c-.01.04-.02.07-.04.11.01-.04.02-.07.04-.11.03-.09.06-.18.09-.27-.03.09-.06.17-.09.27l.23-.62s0,0,0-.02c0,0,0,0,0,0-.04-.07-.21-.31-.74,0-.5.3-.59.43-.6.47.02-.09.12-.56.14-.63.02-.07.05-.27-.49-.11-.55.16-.76.65-.76.65l.1-.72s-.19-.4-.7.12l-.51.51v-.64s-.59-.39-1.05.52l-.1-.4s-.78-.21-.96.77h0l-.2-.41s-.8-.2-.67.92h0l-.25-.5s-.9-.18-.61.95l-.27-.48s-.89,0-.52,1.1l-.31-.52s-.88-.01-.41,1.09h0l-.42-.47s-.91.27-.19,1.15l-.54-.31s-.89.13.01,1.08h0l-.55-.32s-.85.16-.07,1.05h0l-.4-.24s-.96.3-.13,1.24l-.44-.19s-.72.4.11,1.11h0l-.43-.15s-.57.52.05,1h0s-.76.4-.13.96c0,0-.43.29-.06.81,0,0-.46.41.04.81,0,0-.4.45.15.85,0,0-.28.44.21.81,0,0-.29.45.24.69,0,0-.27.42.3.67,0,0-.23.55.32.65h0s-.22.44.46.66c0,0-.16.42.41.59h0s-.12.49.49.61h0s0,.38.42.48l-7.43,5.35s-.24,1.1.21,1.12h.45s-.31.98.04,1.08l.35.1s.27,1.22,1.02,1.04c0,0,.47.75.99.67l.52-.08s-.07.71.57.61l.64-.1,5.44-7.49c-.06.52.34.49.34.49h0c-.41.75.28.8.28.8l-.28.36c.02.63.57.56.57.56.03.58.62.51.62.51.18.6.75.53.75.53.18.66.82.49.82.49.2.63.82.38.82.38.39.56.87.28.87.28.31.81,1.05.28,1.05.28.24.77,1.02.47,1.02.47l.03-.46c.39,1.05,1.12.56,1.12.56v-.49c.61,1.15,1.33.4,1.33.4l-.08-.47c.6,1.09,1.13.38,1.13.38l-.1-.64c.61,1.23,1.13.46,1.13.46l-.09-.63c.61,1.03,1.28.31,1.28.31l-.31-.59M436.54,230.39"/><path class="cls-5" d="M536.73,142.83c.05-.31.21-.53.54-.59.06-.01.12-.02.18-.04.52-.1,1.02,0,1.52.12,1.26.32,2.44.86,3.56,1.52,1.21.71,2.33,1.55,3.44,2.4,1.25.96,2.47,1.97,3.75,2.9.68.5,1.34,1.02,2.06,1.46.11.07.21.15.35.17.06-.11-.01-.19-.03-.28,0-.03-.02-.07.01-.1.04-.03.08,0,.12.02.06.04.1.12.23.1-.1-.11-.18-.2-.27-.29-.02-.03-.04-.06-.02-.09.02-.04.06-.03.09-.01.05.02.09.05.14.08.11.08.22.15.36.25.04-.27-.17-.43-.23-.66.18.01.24.13.33.21.1.08.19.17.31.22.01-.13-.05-.21-.08-.3-.03-.11-.06-.22-.09-.33,0-.04,0-.09.04-.11.04-.01.08,0,.09.03.07.16.24.18.35.29.08.08.15.21.29.05.04-.05.11,0,.16.05.07.06.14.13.25.12.05-.09,0-.17-.03-.25-.02-.07-.04-.13-.05-.2,0-.04,0-.09.05-.11.05-.02.08.01.11.05.07.1.11.23.22.32.04-.09-.01-.15-.02-.22,0-.1-.13-.24.02-.29.13-.04.15.13.21.22.06.09.08.22.24.31,0-.14,0-.25,0-.35,0-.03.01-.07.05-.08.04,0,.06.02.08.05.05.11.09.22.14.33.05-.04.04-.07.05-.1,0-.04.02-.09.07-.1.06-.01.09.04.12.08.04.06.03.16.13.18.07-.07.05-.17.05-.25,0-.13.02-.26.06-.38.02-.06.05-.11.12-.12.06,0,.1.04.13.08.06.1.1.2.12.31.03.13.06.25.09.38.06-.11.05-.26.23-.17.04.02.06-.01.08-.05.03-.05.05-.12.13-.1.07.02.07.09.08.15.02.08-.01.19.09.25.11-.12-.02-.31.14-.43.02.03.03.05.05.07.06.08,0,.25.12.25.1,0,.04-.16.07-.25.02-.07.01-.15.1-.17.07-.02.07.06.1.1.01.01.03.03.04.03.24-.02.19.16.22.3.01.06,0,.12.06.18.11-.08.1-.22.19-.3.03-.02.05-.05.09-.03.04.01.04.05.04.08,0,.08-.06.15,0,.23.03-.07.05-.14.08-.2.02-.04.04-.08.1-.06.04.01.04.05.05.08,0,.12,0,.24.06.36.08-.02.11-.13.2-.1,0,0,.02,0,.02.02.06.08-.04.32.22.21.03-.01.05.04.06.07.02.08.11.11.12.2,0,.04.03.08.07.06.14-.1.22.06.33.06.14,0,.17.08.21.18.06.12.12.25.22.34.1-.06.1-.15.13-.23.04-.1.08-.19.13-.28.13-.25.35-.42.55-.59.11-.09.31-.05.41-.2,0,0,.05,0,.07.02.06.04.11,0,.17,0,.12-.02.25-.05.36-.03.41.07.79.23,1.13.49.24.18.44.39.63.62.1.13.12.13.24,0,.18-.19.33-.4.43-.65.03-.07.06-.15.1-.21.11-.18.27-.19.4-.03.11.14.14.32.12.49-.04.4-.22.73-.54.97-.06.05-.13.09-.19.13-.08.05-.1.12-.06.2.02.06.04.11.07.17.29.68.47,1.4.46,2.14,0,.14.03.24.13.35.21.22.37.48.5.75.21.45.33.93.54,1.38.03.06.04.12-.01.17-.06.05-.12.06-.19.04-.09-.03-.14-.1-.17-.18-.05-.14-.1-.28-.15-.42-.12-.36-.25-.72-.42-1.06-.05-.1-.1-.22-.22-.29-.02.08-.05.14-.05.2-.06.69-.27,1.34-.38,2.02,0,.05-.02.12-.05.14-.14.12-.15.29-.21.44-.03.08-.05.17-.09.24-.04.08-.09.1-.16.02-.03-.03-.03-.08-.08-.09-.27.14-.53.27-.57.63-.02.12-.2.11-.27,0-.03-.06-.03-.12-.03-.18,0-.13.01-.26-.03-.39-.16.19-.16.2-.33.03-.06-.06-.11-.08-.18-.05-.11.04-.2.03-.26-.09-.01-.03-.06-.04-.09-.05-.35-.17-.72-.33-.96-.66-.01-.02-.04-.04-.06-.04-.18-.01-.28-.16-.41-.26-.06-.04-.1-.12-.21-.11.04.16.07.3.11.44.02.06.04.12.08.16.16.21.29.43.34.71.04.23.14.45.19.67.15.63.32,1.24.6,1.83.14.29.26.59.45.85.13.18.29.29.53.25.12-.02.24,0,.35.06.15.07.16.18.03.27-.06.04-.12.06-.19.07-.42.05-.77-.06-1.02-.42-.13-.19-.24-.4-.33-.62-.12-.3-.25-.59-.37-.89-.03-.08-.05-.19-.17-.14-.13.05-.17,0-.2-.11-.01-.05-.02-.14-.11-.11-.15.05-.17-.07-.21-.16-.09-.24-.11-.49-.19-.73-.1-.29-.18-.6-.28-.89-.05-.14-.05-.29-.13-.47-.05.17-.13.27-.1.41.01.06,0,.13-.05.16-.16.08-.22.2-.17.38.02.06-.02.14-.05.2-.09.16-.07.31,0,.47.06.14.1.28.15.41.24.64.55,1.26.79,1.9.07.18.15.35.25.51.23.37.47.74.99.74.08,0,.13.05.15.12.02.09,0,.18-.07.24-.08.07-.2.12-.29.08-.19-.08-.4-.13-.55-.28-.18-.18-.35-.38-.47-.62-.09-.19-.2-.37-.3-.55-.04-.07-.07-.15-.16-.16-.12-.03-.16-.12-.18-.23-.05-.2-.15-.38-.24-.57-.07.06-.06.12-.09.18-.03.06-.04.15-.13.13-.09-.01-.08-.1-.09-.17-.02-.11,0-.22-.04-.33-.2.07-.21.06-.24-.11-.03-.18-.03-.36-.04-.54,0-.05.02-.14-.08-.13-.16.02-.17-.09-.18-.2-.02-.15-.03-.31-.06-.46-.04-.18-.1-.36-.31-.46,0,.14.14.2.12.32-.1.05-.18-.11-.24-.04-.13.15-.24.05-.35-.01-.07.07-.03.23-.15.19-.1-.03-.16.02-.23.02-.17.01-.33.17-.51.07-.01,0-.03,0-.05.02-.16.11-.34,0-.51.05-.08.02-.2-.12-.28.05-.01.03-.07,0-.09-.02-.05-.1-.11-.09-.19-.05-.03.02-.08.02-.1,0-.09-.11-.15,0-.23.02-.12.02-.1-.13-.19-.15-.03,0-.07.02-.09.03-.04.02-.09.04-.12,0-.1-.12-.13-.02-.15.05-.04.1-.07.21-.03.33.08.2.14.41.2.62.1.31.2.61.3.92.03.08.08.18-.02.23-.12.07-.08.16-.04.25.1.21.2.42.31.63.11.21.21.42.37.6.17.2.36.38.66.36.17,0,.26.06.26.19,0,.15-.11.18-.22.21-.4.11-.77-.04-.97-.41-.15-.28-.29-.57-.44-.86-.05-.1-.08-.21-.19-.26-.07.06-.08.19-.2.16-.1-.03-.1-.14-.12-.22-.02-.07-.02-.16-.04-.23-.01-.06,0-.14-.08-.17-.08.02-.14.18-.22.07-.1-.14-.25-.27-.18-.48.04-.11.04-.23.01-.35-.08.02-.1.11-.17.07-.07-.04-.05-.12-.04-.19.01-.08.04-.15.05-.23.01-.06.04-.13-.04-.16-.13-.06-.1-.17-.07-.27.04-.15.07-.3.14-.45.02-.03.06-.09-.01-.1-.13-.01-.07-.09-.06-.15.02-.12.08-.24.04-.38-.09.1-.14.19-.21.23-.2.12-.32.31-.44.51-.1.16-.2.32-.32.47-.1.12-.15.27-.18.43-.09.43-.08.87-.09,1.3-.02.9-.22,1.77-.39,2.65-.03.14-.06.27-.16.38-.1.1-.15.21-.15.35,0,.04,0,.09-.05.11-.06.03-.09-.03-.12-.07-.02-.03-.04-.06-.06-.08-.07-.06-.12-.03-.13.05-.01.06-.01.12,0,.18.02.24.05.48.08.72.05.48.04.95-.07,1.42-.01.06-.01.12-.08.15-.1-.03-.02-.13-.08-.19-.03.11-.03.21-.04.31,0,.12.01.26-.07.35-.13.14-.12.3-.11.46,0,.22.03.43.05.65.03.35.15.62.49.76.12.05.11.17,0,.24-.08.05-.17.05-.25.02-.18-.05-.31-.16-.39-.32-.08-.15-.12-.3-.16-.47-.03-.13-.03-.27-.11-.41-.08.12-.14.23-.21.32-.18.24-.4.4-.68.49-.12.04-.24.04-.35-.05-.08-.06-.09-.13,0-.19.07-.05.15-.08.23-.12.56-.29.86-.73.85-1.37-.28.11-.32.07-.29-.22,0-.04.02-.09.02-.13,0-.04,0-.08-.03-.09-.19-.02-.12-.15-.11-.26.02-.19.04-.38.05-.57,0-.12.03-.24,0-.36-.11.01-.12.17-.23.14-.06-.09.06-.16,0-.25-.07.07-.14.13-.21.19-.03.02-.06.04-.09.02-.05-.03-.04-.07-.02-.12.04-.13.12-.23.2-.33.23-.31.37-.65.49-1.02-.15.11-.28.24-.43.34-.04.03-.08.05-.12.02-.04-.03-.04-.08-.03-.12.02-.15.1-.27.16-.4-.05-.03-.08,0-.11,0-.06.02-.12.06-.17,0-.04-.06,0-.12.04-.17.08-.13.16-.25.24-.37.18-.27.31-.57.43-.88-.12.04-.21.09-.32.14-.08.04-.19.13-.26.04-.07-.1.08-.13.13-.19.1-.14.27-.22.35-.4-.03,0-.04,0-.05,0-.08.02-.15.15-.22.06-.07-.08.02-.18.07-.25.03-.04.06-.08.09-.12.15-.21.31-.42.46-.63.03-.04.09-.09.04-.16-.06-.03-.1.01-.15.01-.04,0-.07,0-.1-.02-.04-.04-.01-.08.02-.12.09-.1.17-.2.27-.28.39-.31.63-.73.84-1.17.06-.12.11-.24.16-.36.18-.47.48-.84.88-1.14.14-.11.28-.23.39-.38-.14.05-.28.12-.4.2-.3.22-.63.37-.98.48-.26.08-.5.24-.75.34-.17.06-.16.09-.29-.04-.24.29-.37.64-.5.99-.16.44-.29.9-.5,1.31-.55,1.06-1.2,2.05-2.08,2.88-.65.62-1.37,1.11-2.19,1.47-1.13.49-2.31.77-3.53.78-.75,0-1-.16-1.24-.82-.13-.35-.21-.72-.29-1.08-.06-.29-.13-.58-.11-.87.02-.3-.02-.61.05-.92.06-.32.06-.66.14-.98.13-.56.26-1.13.48-1.67.53-1.32,1.1-2.63,2.07-3.7.36-.4.71-.81,1.13-1.15,1.33-1.07,2.81-1.84,4.44-2.35.64-.2,1.29-.24,1.95-.14.47.07.9.24,1.34.41.99.38,2.01.67,3.07.8.12.01.24.01.36.02.11,0,.22,0,.33,0-.14-.05-.28-.07-.41-.09-.66-.05-1.31-.16-1.92-.42-.17-.07-.34-.12-.52-.17-.3-.08-.62-.14-.88-.31-.8-.51-1.68-.53-2.57-.43-.81.09-1.61.25-2.43.24-.51,0-1.02,0-1.53-.1-1.21-.21-2.28-.72-3.2-1.53-.44-.39-.83-.84-1.03-1.42-.03-.1-.11-.18-.2-.23-.31-.19-.55-.45-.77-.74-.78-1.08-1.49-2.19-2.02-3.42-.32-.76-.63-1.52-.9-2.3-.1-.3-.17-.6-.11-.92Z"/><path class="cls-5" d="M594.13,165.42c-.69.15-.77.13-.93-.56-.16-.72-.27-1.45-.38-2.18-.11-.75-.38-1.43-.88-2-.7-.81-1.32-.75-1.78.19-.57,1.15-.68,2.33-.12,3.53.18.38.39.74.56,1.12.2.47.09.66-.43.68-.38.02-.77-.02-1.15-.08-.79-.12-1.58-.27-2.37-.42-.59-.12-1.15-.03-1.69.22-.4.19-.9.35-.94.87-.03.53.38.86.79,1.14.38.26.79.41,1.25.47.61.08,1.22.05,1.82-.06.25-.05.5-.1.76-.13.19-.02.43-.01.48.21.07.26-.19.29-.36.35-1.29.51-2,1.6-2.55,2.76-.49,1.04.24,1.95,1.4,1.87.36-.02.68-.17,1-.33.63-.32,1.25-.65,2.01-1.05-.46.82-.75,1.54-.99,2.27-.05.15-.12.35.06.43.22.11.37-.07.45-.25.37-.82.9-1.56,1.14-2.44.06-.22.07-.48.38-.46.5.03.5-.12.21-.46-.1-.12.02-.25.14-.3.24-.1.51-.17.74,0,.23.17.07.42,0,.62-.36,1.13-.73,2.26-1.09,3.39-.06.2-.26.39-.07.61.16.03.27-.06.31-.17.54-1.37,1.32-2.65,1.64-4.11.12-.53.35-.86.84-1.06.51-.21.94-.57,1.29-.99.29-.35.59-.64,1.13-.63-.14-.51-.29-.92-.33-1.37-.1-1.29-1.08-1.97-2.34-1.69Z"/><path class="cls-3" d="M541.88,206.67c.05-.44.47-.69.63-1.08.15-.38.3-.76.45-1.14.15-.37.3-.74.46-1.11-.91,1.63-1.34,2.11-2.14,2.26,0-.04-.04-.1-.02-.13.05-.08.11-.16.18-.22.84-.66,1.38-1.54,1.72-2.53.29-.85.66-1.65,1.11-2.43.11-.19.18-.42.38-.52.52-.25.71-.76,1-1.19-.03-.04-.06-.08-.09-.12-.21.18-.43.36-.64.54-.24.21-.46.45-.77.53-.43.12-.77.39-1.13.61-1.15.7-2.22,1.55-3.56,1.87-.87.21-1.76.31-2.64.04-.92-.27-1.28-.77-1.16-1.72.22-1.83,1.03-3.36,2.47-4.51,1.74-1.4,3.76-2.11,5.99-2.26.17-.01.34-.03.5-.06.1-.02.19-.06.2-.18,0-.11-.06-.18-.14-.23-.36-.2-.72-.4-1.08-.59-1.73-.93-3.06-2.22-3.76-4.11-.65-1.76-.74-3.56-.62-5.4.01-.19.08-.38.15-.56.29-.8.84-1.06,1.65-.8.49.16.9.46,1.28.8,1.06.91,1.78,2.08,2.45,3.28.8,1.44,1.29,3.01,1.91,4.52.15.36.31.7.49,1.05.1.21.25.33.52.25.82-.25,1.6-.21,2.26.44.13.13.25.1.38-.01.12-.12.24-.24.37-.34.72-.51,2-.28,2.35.47.18.39.28.62.75.39.15-.08.41-.03.47.21.04.17-.13.25-.27.28-.38.09-.41.33-.35.66.08.4.17.81.19,1.21.01.51-.05,1.01.49,1.32.12.07.19.24.09.38-.11.15-.27.12-.38.03-.29-.24-.45-.14-.59.17-.33.71-.93.93-1.67.85-.07,0-.14-.02-.22-.02-.43-.02-.44,0-.44.43-.01,1.13.27,2.19.69,3.23.2.51.17.73-.09.81-.27.08-.44-.08-.57-.6-.17-.73-.48-1.42-.59-2.16-.05-.33-.24-.45-.57-.35-.51.16-.88.38-.95,1.01-.09.78-.33,1.55-.51,2.32-.04.17-.11.34-.33.3-.22-.04-.23-.23-.2-.4.05-.31.11-.62.19-.92.13-.49.22-.99.26-1.49.04-.47.02-.49-.45-.49-.41,0-.81.04-1.19-.2-.48-.3-.56-.29-.83.18-.46.8-.74,1.67-.88,2.58-.3,1.93-1.09,3.59-2.73,4.75-.11.08-.2.23-.42.09Z"/><path class="cls-1" d="M468.27,128.89s.69-4.88.77-6.85c.08-1.97.26-5.12.24-5.48-.01-.36-.13-2.71-1.01-6.41,0,0-1.13-3.43-1.93-3.93,0,0-.39-.18-1.08.07-.69.25-1.1.98-1.86,5l-.25,1.14s-.36-.52-1.07-1.12c-.71-.6-1.43-.99-2.17-.58-.74.41-1.18.99-1.29,2.08-.11,1.1-.22,2.06-.38,2.8-.16.74-.81,2.87-1.15,3.48-.35.61-.93,2.82.52,3.97l.93.9s-1.26,1.73-3.29,1.92c0,0-.44.38-.99.96-.55.58-1.92,1.26-2,2.36-.08,1.1-.11,1.4.22,2.14.33.74.58,1.08.38,1.92-.19.84,1.34,2.91,1.84,3.37.49.47,1.85,2.12,2.74,2.19.89.08,2.57-.9,3.3-1.54.73-.63,1.99-1.12,2.1-1.15.11-.03,5.43-7.24,5.43-7.24Z"/><path class="cls-1" d="M468.27,128.83s1.25-.89,1.62-.9c.36-.01.55.68.66.9.11.22-.52.77-.9.91-.38.14.02.32-.05.6-.16.63-.58.93-.66,1.01-.08.08-2.19,1.37-3.23,3.89,0,0-.47,1.01-.99,1.51-.52.49-1.15,1.15-1.4,1.23l-.47.16s-.27-.49.11-1.23c.38-.74-.11-.8-.11-.8l5.43-7.3Z"/><path class="cls-1" d="M470.56,126.62s.1.6-.67,1.45"/><path class="cls-1" d="M471.76,127.25s-1.05.22-1.6.82"/><path class="cls-1" d="M470.75,126.58c0,.1-.08.18-.18.18s-.18-.08-.18-.18.08-.18.18-.18.18.08.18.18Z"/><path class="cls-1" d="M472,127.25c0,.1-.08.18-.18.18s-.18-.08-.18-.18c0-.1.08-.18.18-.18s.18.08.18.18Z"/><path class="cls-2" d="M509.86,209.64s2.39-8.67,5.36-12.19c2.07-2.45,5.01-4.79,6.92-5.59.1-.04.2-.08.3-.12,0,0,.86.8,1.05,2.03.18,1.24.07,4.21-.44,5.46,0,0,.39.89.27,1.55-.12.65.14,1.48.19,1.9.05.42.45,1.29.16,1.7,0,0,.42,1.32.35,1.94-.07.63-.45,1.2-.45,1.2,0,0,.89.4.99,1.26.11.85.71,1.11.84,1.27.13.15.17.42.13.87-.05.45.37,1.21.5,1.61.13.41.61.93.32,1.32l-.28.37s.34.38.2,1.03c-.14.65-.61,1.01-.76,1.3-.16.3-2.12,2.52-3.34,3.21-1.22.7-1.33.83-1.54.83-.21,0-1.76.01-2.81-.69-1.05-.7-2.13-1.08-5.41-4.65l-2.53-5.62Z"/><path class="cls-2" d="M509.07,209.98s-7.94-4.22-12.54-4.48c-3.2-.18-6.93.35-8.81,1.19-.1.05-.2.09-.29.14,0,0-.01,1.17.76,2.16.77.98,3.01,2.95,4.27,3.43,0,0,.39.89.94,1.26.55.36.98,1.12,1.25,1.45.27.33.63,1.22,1.13,1.28,0,0,.67,1.21,1.17,1.59.5.38,1.19.5,1.19.5,0,0-.32.92.23,1.58.55.66.32,1.28.34,1.48.02.2.19.41.55.69.36.28.62,1.1.82,1.47.2.38.25,1.08.74,1.14l.46.05s.04.51.61.85c.57.35,1.15.25,1.47.34.32.09,3.29.19,4.63-.22,1.34-.41,1.52-.4,1.66-.55.14-.15,1.22-1.27,1.44-2.52.22-1.25.68-2.29.34-7.13l-2.34-5.7Z"/><path class="cls-2" d="M513.53,218.52s-.19.13-.7-.21c-.51-.34-1.53-2.84-1.53-2.84l-2.45-5.55-.3-.31c-.63-.65-.3-1.03-.05-1.19.11-.07.2-.1.2-.1,0,0,.6-.4,1.09.19,0,0,.23.64.08.88l2.09,4.59.81,1.82s1.07,2.42.76,2.69Z"/><path class="cls-5" d="M508.63,208.83c-.08.01-.16-.02-.21-.08l-.62-.81c-2.91-2.92-5.86-3.52-5.89-3.53-.12-.02-.19-.14-.17-.25.02-.12.14-.19.25-.17.13.02,3.11.63,6.13,3.66,0,0,.01.01.02.02l.63.82c.07.1.05.23-.04.3-.03.02-.06.04-.1.04Z"/><path class="cls-2" d="M502.25,204.09c.04.26-.12.5-.36.54-.24.04-.48-.14-.52-.4-.04-.26.12-.5.37-.54.24-.04.48.14.52.4Z"/><path class="cls-5" d="M509.11,208.6c-.11.02-.22-.05-.24-.16l-.26-1s0-.02,0-.03c-.52-4.24.84-6.97.9-7.08.05-.11.19-.15.29-.09.11.05.15.18.09.29h0s-1.36,2.72-.86,6.82l.25.98c.03.12-.04.23-.16.26,0,0-.01,0-.02,0Z"/><path class="cls-2" d="M509.43,200.6c.18.19.47.21.65.05.18-.17.19-.46,0-.65-.18-.19-.47-.21-.65-.05-.18.17-.19.46,0,.65Z"/><path class="cls-1" d="M408.93,188.79s6.41-3.9,10.23-4.34c2.66-.31,5.78-.05,7.4.56.09.03.17.07.25.1,0,0,.07.98-.52,1.83-.59.86-2.36,2.6-3.39,3.07,0,0-.28.76-.72,1.09-.44.33-.76.98-.97,1.26-.21.28-.47,1.04-.88,1.12,0,0-.5,1.04-.9,1.38-.4.34-.96.47-.96.47,0,0,.31.75-.12,1.33-.42.58-.2,1.08-.21,1.25,0,.16-.13.35-.42.6-.29.25-.47.94-.61,1.27-.15.32-.16.91-.56.98l-.38.06s0,.42-.46.74c-.45.32-.94.26-1.21.36-.27.09-2.73.32-3.87.04-1.14-.27-1.29-.26-1.41-.37-.12-.12-1.08-1-1.32-2.02-.24-1.03-.67-1.88-.63-5.92l1.67-4.86Z"/><path class="cls-1" d="M408.25,188.55s-2.41-7.1-5.06-9.89c-1.84-1.94-4.41-3.74-6.04-4.32-.09-.03-.17-.06-.26-.08,0,0-.68.71-.77,1.74-.09,1.04.15,3.51.64,4.52,0,0-.28.76-.15,1.3.13.54-.04,1.24-.07,1.59-.02.35-.31,1.1-.05,1.42,0,0-.29,1.12-.2,1.64.09.52.44.98.44.98,0,0-.72.38-.76,1.1-.05.72-.54.96-.64,1.1-.1.13-.12.36-.06.73.06.37-.25,1.02-.34,1.37-.09.34-.47.8-.2,1.11l.25.29s-.26.33-.12.87c.15.54.55.81.7,1.05.14.24,1.89,1.99,2.94,2.51,1.05.52,1.15.63,1.32.62.17-.01,1.47-.07,2.31-.71.84-.63,1.72-1.01,4.28-4.14l1.84-4.8Z"/><path class="cls-1" d="M406.08,196.29s-.19-.03-.31-.52c-.12-.49.69-2.6.69-2.6l1.68-4.77v-.36c-.01-.76.4-.79.64-.75.1.02.18.05.18.05,0,0,.6.1.55.74,0,0-.22.52-.46.58l-1.35,3.99-.55,1.57s-.73,2.08-1.08,2.07Z"/><path class="cls-3" d="M408.64,187.59c-.05-.04-.09-.1-.08-.17l.08-.84c-.1-3.44-1.55-5.49-1.57-5.51-.06-.08-.04-.19.04-.25.08-.06.19-.04.25.04.06.09,1.53,2.16,1.63,5.72,0,0,0,.02,0,.02l-.09.85c-.01.1-.1.17-.2.16-.03,0-.06-.01-.08-.03Z"/><path class="cls-1" d="M407.47,181.07c-.12.18-.36.24-.53.12-.17-.12-.21-.36-.09-.54.12-.18.36-.24.53-.12.17.12.21.36.09.54Z"/><path class="cls-3" d="M409.06,187.74c-.08-.05-.1-.15-.06-.24l.41-.75s0-.01.01-.02c2.11-2.88,4.49-3.75,4.59-3.79.09-.03.2.02.23.11.03.09-.02.2-.11.23h0s-2.38.88-4.42,3.65l-.41.74c-.05.09-.16.12-.25.07,0,0,0,0-.01,0Z"/><path class="cls-1" d="M413.82,183.06c0,.22.16.4.37.4.21,0,.38-.17.38-.39,0-.22-.16-.4-.37-.4-.21,0-.38.17-.38.39Z"/><path class="cls-2" d="M373.95,181.92s1.81-2.11,2.76-3.34c.95-1.23,2.79-3.47,3.94-4.02,1.15-.55,3.03-.94,3.25-.8,0,0-.44,2.22-1.73,3.42,0,0-2.07,4.3-2.34,4.63-.27.33-.93.88-1.11.92l-.19.28s.09,1.41-.03,1.91c-.13.5-.16,3.1-4.79,5.58,0,0-.98-1.22-1.04-4.07,0,0-.05-1.45.29-2.16.52-1.07.99-2.35.99-2.35Z"/><path class="cls-2" d="M373.19,181.61l-2.08,4.76s-1,.27-1.92,1.39c0,0-1.9,1.86-4.28.59,0,0-1.58-.85-2.31-3.17-.73-2.33.56-4.59,1.74-4.98,0,0-.9-.59-1.04-1.32-.15-.73.21-3.02-.03-4.38-.24-1.36-.47-1.98-.47-1.98,0,0,.57-1.63,1.55-1.65.98-.02,3.68,1.83,4.96,4.57,1.28,2.74,3.89,6.16,3.89,6.16Z"/><path class="cls-2" d="M374.07,181.23s-.36-.35-.83.23l-2.27,5.11s-.6,1.27.07,1.42c.67.15.05.01.05.01,0,0,.42-.2.89-1.77.47-1.57.81-1.47.84-1.56.03-.09,1.36-3.11,1.36-3.11,0,0,.05-.3-.12-.33Z"/><path class="cls-5" d="M373.66,181.27s-.05-.03-.06-.06c0,0-.15-.98-.28-1.35-.01-.04,0-.08.04-.09.04-.01.07,0,.09.04.13.38.28,1.34.28,1.38,0,.04-.02.07-.06.08,0,0-.02,0-.02,0Z"/><path class="cls-5" d="M373.9,181.31s-.02,0-.03-.01c-.03-.02-.04-.06-.02-.1l.88-1.26s.06-.04.1-.02c.03.02.04.06.02.1l-.88,1.26s-.04.03-.07.03Z"/><path class="cls-2" d="M374.94,180.01c-.02.1-.11.17-.21.15-.1-.02-.17-.11-.15-.21.02-.1.11-.17.21-.15.1.02.17.11.15.21Z"/><path class="cls-2" d="M373.57,179.87c-.02.1-.11.17-.21.15-.1-.02-.17-.11-.15-.21.02-.1.11-.17.21-.15.1.02.17.11.15.21Z"/><path class="cls-5" d="M447.18,228.7c.04-.22.16-.37.39-.41.04,0,.09-.02.13-.02.37-.06.73.02,1.08.12.89.26,1.72.66,2.5,1.16.84.53,1.62,1.15,2.39,1.78.87.71,1.72,1.45,2.61,2.14.47.37.93.75,1.44,1.08.08.05.15.11.24.13.05-.08,0-.14-.02-.2,0-.02-.01-.05.01-.07.03-.02.06,0,.08.01.04.03.07.09.16.08-.07-.08-.13-.15-.19-.21-.02-.02-.03-.04-.01-.07.02-.03.04-.02.07,0,.03.02.06.04.09.06.08.06.16.11.25.18.03-.19-.11-.31-.15-.47.13.01.17.1.23.15.07.06.13.12.22.17.01-.09-.03-.15-.05-.21-.02-.08-.04-.15-.06-.23,0-.03,0-.06.03-.08.03,0,.06,0,.07.02.05.11.17.14.25.21.06.06.1.15.2.04.03-.04.08,0,.11.04.05.05.1.09.17.09.03-.07,0-.12-.01-.18-.01-.05-.02-.1-.03-.14,0-.03,0-.06.04-.08.04-.01.06.01.08.04.05.07.07.16.15.23.03-.07,0-.11,0-.16,0-.07-.09-.18.02-.21.09-.03.11.1.15.16.04.07.05.16.16.22,0-.1,0-.17,0-.25,0-.02,0-.05.04-.05.03,0,.04.02.05.04.03.08.06.16.1.24.04-.02.03-.05.03-.07,0-.03.02-.06.05-.07.05,0,.06.03.08.06.03.04.02.11.09.13.05-.05.04-.12.04-.18,0-.09.02-.18.05-.27.01-.04.04-.08.09-.08.04,0,.07.03.09.06.04.07.06.15.08.23.02.09.04.18.06.27.05-.08.04-.18.17-.12.02.01.05,0,.06-.03.02-.04.04-.09.09-.07.05.02.04.07.05.11,0,.06-.01.13.06.18.08-.09,0-.22.11-.3.01.02.02.04.03.05.04.06-.01.18.08.18.07,0,.04-.12.05-.18.01-.05.01-.11.07-.12.05,0,.05.05.07.07,0,0,.02.02.03.02.17,0,.13.12.15.22,0,.04,0,.09.04.13.08-.05.07-.16.14-.21.02-.02.04-.03.07-.02.03.01.03.03.03.06,0,.05-.05.11,0,.17.02-.05.04-.1.06-.14.01-.03.03-.06.07-.04.03.01.03.04.03.06,0,.08-.01.17.04.26.05-.02.08-.09.14-.07,0,0,.01,0,.01.01.04.06-.03.23.15.15.02,0,.04.03.04.05.01.06.07.08.08.14,0,.03.02.06.05.04.1-.07.16.05.23.05.1,0,.12.06.15.13.04.09.08.18.15.25.07-.04.08-.11.1-.16.03-.07.06-.13.1-.2.1-.18.26-.29.4-.41.08-.06.22-.03.3-.13,0,0,.04,0,.05.01.04.03.08,0,.12,0,.08-.01.18-.03.26-.01.29.06.56.18.79.37.16.14.31.28.43.45.07.1.08.09.17,0,.13-.13.24-.28.32-.45.02-.05.05-.1.08-.15.08-.13.2-.13.28-.01.08.1.09.23.07.35-.04.29-.17.51-.41.68-.05.03-.09.06-.14.09-.06.03-.07.08-.05.14.01.04.03.08.04.12.19.49.3,1,.28,1.54,0,.1.02.17.09.25.14.16.26.35.34.55.14.32.21.67.35,1,.02.04.03.09-.01.12-.04.03-.09.04-.14.02-.06-.02-.1-.07-.12-.13-.03-.1-.06-.2-.09-.3-.08-.26-.16-.52-.28-.77-.03-.07-.06-.16-.15-.21-.02.06-.04.1-.04.14-.05.49-.22.95-.31,1.43,0,.04-.02.08-.04.1-.1.08-.11.2-.16.31-.02.06-.04.12-.07.17-.03.05-.07.07-.11.01-.02-.02-.02-.06-.06-.07-.19.09-.38.18-.42.44-.01.08-.14.08-.19,0-.02-.04-.02-.08-.02-.13,0-.09.01-.18-.02-.28-.12.13-.12.14-.24.01-.04-.04-.07-.06-.13-.04-.08.03-.14.01-.18-.07,0-.02-.04-.03-.06-.04-.25-.13-.5-.25-.67-.49,0-.01-.03-.03-.04-.03-.13-.01-.19-.12-.29-.19-.04-.03-.07-.09-.15-.08.03.11.05.22.07.32.01.04.03.08.05.12.11.16.2.31.23.51.02.16.09.32.12.48.09.45.2.89.39,1.31.09.21.17.42.3.62.09.13.2.21.37.19.09-.01.17,0,.25.05.11.06.11.13.01.19-.04.03-.09.04-.14.05-.3.03-.55-.06-.72-.32-.09-.14-.16-.29-.22-.45-.08-.21-.16-.43-.24-.64-.02-.06-.03-.14-.12-.1-.09.03-.12,0-.14-.08,0-.04,0-.1-.07-.08-.11.03-.12-.05-.15-.12-.06-.17-.06-.35-.12-.52-.07-.21-.11-.43-.18-.64-.03-.1-.03-.21-.08-.34-.04.12-.1.19-.08.29,0,.05,0,.1-.04.12-.12.06-.16.14-.13.27.01.04-.02.1-.04.14-.07.11-.06.22-.02.34.04.1.07.2.1.3.16.46.37.91.52,1.37.04.13.1.25.17.37.16.27.32.54.69.55.05,0,.09.04.1.09.01.07,0,.13-.06.17-.06.05-.14.08-.21.05-.13-.06-.28-.1-.38-.21-.13-.13-.24-.28-.32-.45-.06-.13-.13-.26-.2-.4-.03-.05-.04-.11-.11-.12-.09-.02-.11-.09-.12-.16-.03-.14-.1-.27-.16-.41-.05.04-.05.09-.07.13-.02.04-.03.11-.09.09-.06-.01-.05-.08-.06-.12-.02-.08,0-.16-.02-.24-.14.05-.15.04-.17-.09-.02-.13-.02-.26-.02-.39,0-.04.02-.1-.05-.1-.11,0-.12-.07-.12-.14-.01-.11-.01-.22-.03-.33-.03-.13-.07-.26-.21-.33,0,.1.09.14.08.23-.07.03-.13-.08-.17-.04-.1.1-.17.03-.25-.02-.05.05-.02.16-.11.13-.07-.02-.11,0-.17.01-.12,0-.24.11-.37.04,0,0-.02,0-.03,0-.11.07-.24-.01-.36.02-.06.02-.14-.09-.2.03-.01.02-.05,0-.06-.02-.03-.07-.08-.07-.13-.04-.02.01-.05.02-.07,0-.06-.08-.11,0-.16.01-.09.01-.07-.1-.13-.11-.02,0-.05.01-.07.02-.03.01-.06.03-.08,0-.07-.09-.09-.01-.11.03-.03.07-.06.15-.03.23.05.15.09.3.13.44.06.22.13.44.19.66.02.06.05.13-.02.17-.09.05-.06.11-.03.17.07.15.14.3.21.46.07.15.14.3.25.43.12.14.25.27.46.27.12,0,.18.05.18.14,0,.11-.08.13-.16.15-.29.07-.55-.05-.68-.31-.1-.2-.19-.41-.29-.62-.03-.07-.05-.15-.13-.19-.05.04-.06.13-.14.11-.07-.02-.07-.1-.08-.16-.01-.05-.01-.11-.02-.17,0-.04,0-.1-.06-.13-.06.01-.1.12-.16.05-.07-.1-.18-.2-.12-.35.03-.08.03-.16.02-.25-.05,0-.08.08-.12.05-.05-.03-.04-.09-.03-.13.01-.05.03-.11.04-.16,0-.04.03-.09-.02-.12-.09-.05-.07-.12-.05-.19.03-.11.06-.21.11-.31.01-.02.04-.07,0-.07-.1-.01-.05-.07-.04-.11.01-.08.06-.17.03-.27-.06.07-.1.13-.16.16-.15.08-.24.22-.32.35-.07.11-.15.23-.24.33-.07.09-.11.19-.14.3-.07.3-.07.61-.09.92-.03.64-.2,1.26-.33,1.88-.02.1-.05.19-.12.27-.07.07-.11.15-.11.25,0,.03,0,.07-.04.08-.05.02-.06-.02-.08-.05-.01-.02-.02-.04-.04-.06-.05-.04-.08-.02-.09.03,0,.04-.01.09,0,.13.01.17.03.34.04.52.03.34.01.68-.08,1.01-.01.04-.01.09-.06.1-.07-.02-.01-.1-.05-.14-.03.07-.03.15-.04.22,0,.09,0,.19-.06.25-.09.1-.09.21-.09.33,0,.15.01.31.02.46.01.25.09.44.33.55.08.04.07.13,0,.17-.06.03-.12.03-.18,0-.12-.04-.21-.12-.27-.23-.05-.11-.08-.22-.1-.34-.02-.09-.01-.19-.07-.3-.06.09-.1.16-.16.23-.13.16-.3.28-.5.34-.09.03-.17.02-.25-.04-.05-.05-.06-.1,0-.14.05-.03.11-.05.17-.08.4-.19.63-.5.63-.96-.2.07-.23.05-.2-.16,0-.03.01-.06.02-.09,0-.03,0-.06-.02-.06-.13-.02-.08-.11-.08-.18.02-.13.04-.27.05-.4,0-.08.03-.17,0-.26-.08,0-.09.12-.17.1-.04-.06.05-.11,0-.18-.05.04-.1.09-.16.13-.02.02-.04.03-.07.01-.03-.02-.02-.05-.01-.08.03-.09.09-.16.15-.23.17-.21.28-.46.37-.71-.11.08-.2.17-.31.23-.03.02-.06.03-.09.01-.03-.02-.02-.05-.02-.09.01-.1.08-.19.12-.28-.04-.03-.06,0-.08,0-.04,0-.09.04-.12,0-.03-.04,0-.08.03-.12.06-.09.12-.17.18-.26.13-.19.23-.4.32-.61-.09.02-.15.06-.23.09-.06.02-.14.09-.18.02-.05-.07.06-.09.09-.13.08-.1.2-.15.26-.28-.02,0-.03,0-.03,0-.06.01-.11.1-.16.04-.05-.06.02-.12.05-.18.02-.03.05-.06.07-.09.11-.15.23-.29.34-.44.02-.03.07-.06.03-.11-.04-.02-.07,0-.11,0-.02,0-.05,0-.07-.02-.02-.03,0-.06.01-.08.06-.07.12-.14.2-.2.29-.21.47-.51.62-.82.04-.08.08-.17.12-.25.14-.33.36-.59.65-.79.1-.07.2-.16.28-.26-.1.04-.2.08-.29.13-.22.15-.45.25-.7.32-.19.05-.36.16-.54.23-.12.04-.11.06-.2-.03-.18.2-.28.45-.38.7-.12.31-.23.63-.39.92-.41.74-.9,1.43-1.54,2-.48.42-1,.76-1.59,1-.81.33-1.66.5-2.53.48-.53-.01-.71-.13-.87-.61-.08-.25-.13-.51-.18-.77-.04-.2-.08-.42-.06-.62.02-.22,0-.44.05-.65.05-.23.06-.47.12-.69.11-.4.21-.8.38-1.18.41-.93.84-1.85,1.55-2.59.27-.28.52-.56.83-.8.97-.74,2.04-1.25,3.21-1.58.46-.13.92-.14,1.39-.06.33.06.64.19.95.32.7.29,1.42.52,2.16.63.09.01.17.01.26.02.08,0,.16,0,.23,0-.1-.04-.19-.06-.29-.07-.47-.05-.93-.14-1.36-.34-.12-.05-.24-.09-.37-.13-.21-.06-.43-.11-.62-.24-.56-.38-1.18-.41-1.82-.36-.58.05-1.15.14-1.74.12-.36-.01-.73-.03-1.09-.1-.86-.17-1.61-.56-2.25-1.16-.31-.29-.58-.61-.7-1.03-.02-.07-.07-.13-.14-.17-.21-.14-.39-.33-.53-.54-.53-.78-1.02-1.59-1.36-2.48-.21-.55-.42-1.1-.59-1.66-.07-.21-.1-.43-.06-.66Z"/><path class="cls-3" d="M353.12,199.34c.4-.52.63-.99.81-1.29.37-.58.77-1.16.85-1.27l.8-.23c-.24-.23-.71-.28-.88-.29,0,0,0,0,0,0,0,0,0-.02-.02-.04-.05-.1-.19-.38-.46-.68-.27-.3-.68-.63-1.24-.81-.75-.23-1.49.02-2.06.37-.09.05-.18.11-.26.17,0,0,0,0,0,0,0,0,0,0,0,0-.06.04-.11.08-.16.12-.18.13-.32.26-.44.37l-.6.42c-.06-.07-.14-.15-.22-.24-.02-.02-.04-.04-.05-.06,0,0-.02-.02-.02-.03-.02-.02-.04-.05-.06-.07,0,0,0,0-.01-.02-.04-.04-.07-.08-.11-.13-.01-.02-.03-.03-.05-.05-.02-.02-.03-.04-.05-.06-.13-.15-.27-.31-.4-.47-.27-.32-.53-.64-.75-.94h0c-.14-.18-.25-.35-.33-.5-.01-.02-.03-.05-.04-.08-.28-.51-.81-1.65-1.24-2.76-.03-.07-.05-.13-.08-.2-.4-1.03-.71-2-.66-2.35.11-.73-.48.18-.63.96h0s0,0,0,0h0s0,0,0,0h0s-.01.06-.02.09c0,0-.01-.04-.03-.1,0,0,0,0,0,0-.12-.36-.46-1.47-.41-1.88,0,0-.32.42-.53.91,0,0,0,.01,0,.02-.1.24-.18.5-.17.72,0,.01,0,.03,0,.04,0,.02,0,.04,0,.07,0,0-.01-.02-.04-.06,0-.01-.01-.02-.02-.04-.07-.12-.2-.35-.36-.63,0-.01-.02-.03-.02-.04-.19-.34-.4-.76-.57-1.17,0,0-.5.5-.46,1.33,0,.03,0,.07,0,.1,0,.02,0,.05,0,.07l-.03-.05-.05-.08-.63-1s-.65.45-.35,1.85c0,0,0,.01,0,.02,0,.01,0,.02,0,.04,0,.03.02.06.02.1,0,0,0,0,0,.01h-.01s-.15-.16-.15-.16l-1.06-1.02s-.45.95.27,1.89c.04.05.08.1.13.15l-.14-.06-1.03-.42s.07.91.72,1.69c0,0-.75-.27-1.07-.38-.32-.11-.01,1.45.94,1.57-.05.02-1.17.57.1,1.59,0,0-.66.85.31,1.35,0,0-.69.52.3,1.35,0,0-.18.77.5,1.13.03.01.06.03.09.04,0,0,0,.05,0,.14.02.32.14,1.08.84,1.09.06,0,.11,0,.18-.01,0,0,.04.14.16.28.1.13.26.26.49.3.04,0,.08.01.12.01.05,0,.09,0,.14,0,.02.02.04.04.07.06-.02.02-.55.14-.69.18-.42.01-.94.02-1.49.04-1.64.04-3.54.09-3.8.09-.18,0-.22.09-.2.19.03.16.2.37.2.37,0,0-.71.05-.69.49,0,.03,0,.07.02.1.04.15.18.27.36.37-.04.02-.08.05-.11.07-.19.16-.27.31-.25.44.03.14.15.22.22.25-.06.1-.08.19-.06.28.05.18.26.3.35.35-.05.04-.08.07-.08.09-.03.31.38.46.52.5-.2.15-.19.19-.18.22,0,.04.05.05.11.05.05,0,.13,0,.21-.02-.02.04-.05.15-.05.26,0,.08.01.16.06.23.07.1.19.16.36.17h.01s.03,0,.05,0c0,.07,0,.21.09.34.1.14.29.22.55.24,0,0,.02,0,.03,0,.08,0,.19-.02.34-.07v.03s0,0,0,0c0,0,0,.02,0,.04h0c0,.12.04.47.34.53,0,0,0,0,.01,0,.06,0,.19-.05.38-.14,0,.11,0,.36.15.49.07.06.16.09.28.09.06,0,.13,0,.21-.03.09-.02.22-.08.39-.18-.1.34-.15.69.02.89.02.03.05.05.08.07.36.28.83-.24.83-.24,0,0,.07.26.19.37.08.07.17.09.28-.04.16-.19,1.33-1.63,2.33-2.86.19-.23.37-.46.54-.67,0,.01-.01.02-.02.04-.11.29-.07.49.04.62.16.19.46.24.61.25.06,0,.09,0,.09,0-.01.02-.03.04-.04.06-.07.11-.12.21-.14.31-.01.05-.02.09-.02.13-.03.25.08.46.2.6.13.16.28.24.28.24-.03.06-.05.12-.07.18-.21.73.65,1.08,1.02,1.19.1.03.16.04.16.04,0,.04.01.07.02.1.22.82,1.18.85,1.18.85.68,1.28,1.5.7,1.5.7.29,1.17,1.49.7,1.49.7.8,1.62,1.79.59,1.83.55-.15,1.04,1.59,1.81,1.56,1.44-.03-.37-.12-1.24-.12-1.24.71.9,1.76,1.24,1.76,1.24l-.18-1.21-.02-.17c.05.06.09.12.14.18.89,1.03,2.14.82,2.14.82l-.88-1.41-.13-.2h0s0-.01.01,0c.04.02.07.03.11.05.01,0,.03.01.04.02,0,0,.02,0,.02.01,1.56.71,2.29.15,2.29.15l-.98-.94-.08-.08-.05-.05s.05.02.08.03c.04.01.08.03.12.04.97.28,1.7-.11,1.7-.11-.43-.3-.85-.64-1.2-.93-.02-.01-.03-.02-.04-.04-.28-.24-.51-.44-.63-.55-.01-.01-.03-.03-.04-.04-.03-.03-.05-.05-.06-.05.02,0,.05.02.08.03.02,0,.03.01.05.01.26.07.59.06.9.02,0,0,.01,0,.02,0,.63-.09,1.23-.31,1.23-.31-.49-.06-1.7-.73-2.08-.96,0,0,0,0,0,0-.07-.04-.11-.07-.11-.07.04,0,.08,0,.12,0h0s0,0,0,0h0s0,0,0,0h0c.96.07,2.21-.31,1.32-.39-.34-.03-1.08-.43-1.93-.95-.33-.2-.67-.42-1.01-.65-.7-.47-1.39-.96-1.93-1.37-.22-.17-.41-.32-.57-.45-.1-.08-.19-.16-.26-.22-.04-.04-.08-.07-.12-.12-.07-.07-.15-.15-.23-.23-.02-.03-.05-.05-.08-.08-.02-.02-.04-.04-.06-.07-.02-.02-.03-.04-.05-.05-.11-.12-.22-.25-.34-.39-.02-.03-.05-.06-.07-.08-.06-.08-.13-.15-.19-.23-.02-.03-.05-.06-.07-.09-.09-.11-.17-.22-.26-.33-.08-.1-.16-.21-.24-.31,0-.01,0-.02,0-.04.02-.1.37-.44.39-.54"/><path class="cls-2" d="M347.05,221.7s3.36-2.04,5.36-2.28c1.39-.16,3.03-.02,3.88.29.05.02.09.03.13.05,0,0,.04.51-.27.96-.31.45-1.24,1.36-1.78,1.61,0,0-.15.4-.38.57-.23.17-.4.51-.51.66-.11.15-.24.55-.46.59,0,0-.26.55-.47.72-.21.18-.5.25-.5.25,0,0,.16.39-.06.7-.22.3-.11.57-.11.65,0,.09-.07.18-.22.31-.15.13-.24.49-.32.66-.08.17-.08.48-.29.51l-.2.03s0,.22-.24.39c-.24.17-.49.14-.63.19-.14.05-1.43.17-2.03.02-.6-.14-.67-.13-.74-.2-.07-.06-.56-.52-.69-1.06-.13-.54-.35-.98-.33-3.1l.88-2.55Z"/><path class="cls-2" d="M346.69,221.57s-1.27-3.72-2.65-5.18c-.97-1.02-2.31-1.96-3.16-2.26-.05-.02-.09-.03-.13-.04,0,0-.36.37-.4.91-.05.54.08,1.84.33,2.37,0,0-.15.4-.08.68.07.28-.02.65-.03.83-.01.18-.16.58-.03.75,0,0-.15.59-.1.86.05.27.23.51.23.51,0,0-.38.2-.4.57-.02.38-.28.5-.33.57-.05.07-.06.19-.03.38.03.2-.13.54-.18.72-.05.18-.24.42-.1.58l.13.15s-.14.17-.06.45c.08.28.29.42.37.55.08.13.99,1.04,1.54,1.32.55.27.6.33.69.32.09,0,.77-.04,1.21-.37.44-.33.9-.53,2.24-2.17l.96-2.52Z"/><path class="cls-2" d="M345.55,225.63s-.1-.02-.16-.27c-.06-.26.36-1.36.36-1.36l.88-2.5v-.19c0-.4.21-.42.34-.39.05,0,.09.03.09.03,0,0,.31.05.29.39,0,0-.12.27-.24.31l-.71,2.09-.29.82s-.38,1.09-.57,1.09Z"/><path class="cls-5" d="M346.89,221.07s-.04-.05-.04-.09l.04-.44c-.05-1.8-.81-2.88-.82-2.89-.03-.04-.02-.1.02-.13.04-.03.1-.02.13.02.03.05.8,1.13.86,3,0,0,0,0,0,.01l-.04.45c0,.05-.05.09-.1.08-.02,0-.03,0-.04-.02Z"/><path class="cls-2" d="M346.28,217.65c-.06.1-.19.12-.28.06-.09-.06-.11-.19-.05-.28.06-.1.19-.12.28-.06.09.06.11.19.05.28Z"/><path class="cls-5" d="M347.12,221.15s-.05-.08-.03-.12l.22-.39s0,0,0-.01c1.1-1.51,2.35-1.97,2.41-1.98.05-.02.1,0,.12.06.02.05,0,.1-.06.12h0s-1.25.46-2.31,1.91l-.21.39s-.08.06-.13.04c0,0,0,0,0,0Z"/><path class="cls-2" d="M349.61,218.7c0,.11.09.21.19.21.11,0,.2-.09.2-.21,0-.11-.09-.21-.19-.21-.11,0-.2.09-.2.21Z"/><path class="cls-1" d="M396.8,223.88s.49-3.49.55-4.9c.06-1.41.18-3.66.17-3.92-.01-.26-.09-1.94-.72-4.58,0,0-.81-2.45-1.38-2.81,0,0-.28-.13-.77.05-.49.18-.78.7-1.33,3.57l-.18.82s-.25-.37-.76-.8c-.51-.43-1.02-.71-1.55-.41-.53.29-.84.71-.92,1.49-.08.78-.16,1.47-.27,2-.12.53-.58,2.05-.82,2.49-.25.44-.67,2.02.37,2.84l.67.65s-.9,1.23-2.35,1.37c0,0-.31.27-.71.69-.39.41-1.37.9-1.43,1.69-.06.78-.08,1,.16,1.53.24.53.41.77.27,1.37-.14.6.96,2.08,1.31,2.41.35.33,1.32,1.51,1.96,1.57.64.05,1.84-.65,2.36-1.1.52-.45,1.42-.8,1.5-.82.08-.02,3.88-5.17,3.88-5.17Z"/><path class="cls-1" d="M396.8,223.83s.9-.63,1.16-.64c.26,0,.39.49.47.64.08.16-.37.55-.65.65-.27.1.01.23-.04.43-.12.45-.41.67-.47.73-.06.06-1.57.98-2.31,2.78,0,0-.33.73-.71,1.08-.37.35-.82.82-1,.88l-.33.12s-.2-.35.08-.88c.27-.53-.08-.57-.08-.57l3.88-5.22Z"/><path class="cls-1" d="M398.44,222.25s.07.43-.48,1.04"/><path class="cls-1" d="M399.29,222.7s-.75.16-1.14.59"/><path class="cls-1" d="M398.57,222.23c0,.07-.06.13-.13.13s-.13-.06-.13-.13.06-.13.13-.13.13.06.13.13Z"/><path class="cls-1" d="M399.46,222.7c0,.07-.06.13-.13.13s-.13-.06-.13-.13c0-.07.06-.13.13-.13s.13.06.13.13Z"/><path class="cls-2" d="M340.61,250.66s1.94-1.67,2.98-2.66c1.04-.99,3.02-2.78,4.14-3.12,1.12-.34,2.89-.44,3.07-.28,0,0-.7,1.96-2.05,2.87,0,0-2.48,3.63-2.77,3.9-.29.27-.96.67-1.13.68l-.21.23s-.11,1.3-.29,1.74c-.18.44-.58,2.8-5.14,4.43,0,0-.73-1.25-.39-3.86,0,0,.16-1.33.57-1.93.62-.9,1.23-2,1.23-2Z"/><path class="cls-2" d="M339.97,250.27l-2.55,4.06s-.95.1-1.94,1.01c0,0-1.99,1.43-3.98-.05,0,0-1.32-.99-1.67-3.21-.35-2.22,1.15-4.11,2.27-4.3,0,0-.74-.66-.77-1.34-.03-.69.61-2.73.58-4-.03-1.27-.16-1.87-.16-1.87,0,0,.75-1.4,1.64-1.29.89.12,3.1,2.17,3.89,4.85.79,2.68,2.7,6.15,2.7,6.15Z"/><path class="cls-2" d="M340.82,250.05s-.28-.37-.79.09l-2.77,4.35s-.72,1.08-.13,1.3c.59.23.05.02.05.02,0,0,.41-.12,1.05-1.49.65-1.37.94-1.23.98-1.31.04-.08,1.67-2.65,1.67-2.65,0,0,.08-.26-.06-.31Z"/><path class="cls-5" d="M340.44,250.03s-.04-.03-.04-.06c0,0,0-.92-.07-1.27,0-.03.02-.07.05-.07.03,0,.07.02.07.05.07.37.07,1.26.07,1.29,0,.03-.03.06-.06.06,0,0-.01,0-.02,0Z"/><path class="cls-5" d="M340.66,250.1s-.02,0-.02-.01c-.03-.02-.03-.06,0-.09l.98-1.03s.06-.03.09,0c.03.02.03.06,0,.09l-.98,1.03s-.04.02-.07.02Z"/><path class="cls-2" d="M341.79,249.06c-.03.09-.13.14-.21.11-.09-.03-.14-.13-.11-.21.03-.09.13-.14.21-.11.09.03.14.13.11.21Z"/><path class="cls-2" d="M340.56,248.74c-.03.09-.13.14-.21.11-.09-.03-.14-.13-.11-.21.03-.09.13-.14.21-.11.09.03.14.13.11.21Z"/><path class="cls-3" d="M374.11,210.51c.03-.23.24-.36.33-.57.08-.2.16-.4.24-.6.08-.19.16-.39.24-.58-.48.85-.7,1.1-1.12,1.18,0-.02-.02-.05-.01-.07.03-.04.06-.08.09-.11.44-.35.72-.8.9-1.32.15-.44.35-.86.58-1.27.06-.1.09-.22.2-.27.27-.13.37-.4.52-.62-.02-.02-.03-.04-.05-.06-.11.09-.23.19-.34.28-.12.11-.24.23-.4.28-.23.06-.4.2-.59.32-.6.37-1.16.81-1.86.98-.46.11-.92.16-1.38.02-.48-.14-.67-.4-.61-.9.12-.95.54-1.76,1.29-2.36.91-.73,1.97-1.1,3.13-1.18.09,0,.18-.01.26-.03.05,0,.1-.03.11-.09,0-.06-.03-.09-.08-.12-.19-.1-.37-.21-.56-.31-.9-.49-1.6-1.16-1.97-2.15-.34-.92-.39-1.86-.32-2.82,0-.1.04-.2.08-.29.15-.42.44-.56.86-.42.26.08.47.24.67.42.55.48.93,1.09,1.28,1.72.42.75.67,1.57,1,2.36.08.19.16.37.25.55.05.11.13.17.27.13.43-.13.84-.11,1.18.23.07.07.13.05.2,0,.06-.06.12-.13.19-.18.38-.27,1.04-.15,1.23.25.1.21.15.33.39.21.08-.04.22-.02.24.11.02.09-.07.13-.14.14-.2.04-.22.17-.18.34.04.21.09.42.1.63,0,.27-.03.53.26.69.06.03.1.12.05.2-.06.08-.14.06-.2.01-.15-.13-.23-.08-.31.09-.17.37-.49.48-.87.44-.04,0-.08,0-.11-.01-.23,0-.23,0-.23.22,0,.59.14,1.14.36,1.69.11.27.09.38-.05.42-.14.04-.23-.04-.3-.31-.09-.38-.25-.74-.31-1.13-.03-.17-.13-.23-.3-.18-.27.08-.46.2-.5.53-.05.41-.17.81-.27,1.21-.02.09-.06.18-.17.16-.12-.02-.12-.12-.11-.21.03-.16.06-.32.1-.48.07-.26.11-.52.14-.78.02-.25.01-.25-.24-.26-.21,0-.43.02-.62-.1-.25-.16-.29-.15-.43.09-.24.42-.39.87-.46,1.35-.16,1.01-.57,1.87-1.42,2.48-.06.04-.11.12-.22.04Z"/><path class="cls-5" d="M453.32,182.95c.17.11.35.18.55.21.27.04.54.02.81-.03.11-.02.22-.05.34-.06.08,0,.19,0,.21.09.03.11-.08.13-.16.16-.57.23-.89.71-1.13,1.22-.22.46.11.86.62.83.16-.01.3-.07.44-.15.28-.14.55-.29.89-.47-.2.36-.33.68-.44,1-.02.07-.05.15.03.19.1.05.16-.03.2-.11.16-.36.4-.69.51-1.08.03-.1.03-.21.17-.2.22.01.22-.05.09-.2-.04-.05,0-.11.06-.13.11-.04.23-.07.33,0,.1.08.03.19,0,.27-.16.5-.32,1-.48,1.5-.03.09-.11.17-.03.27.07.01.12-.02.14-.08.24-.61.59-1.17.72-1.82.05-.24.15-.38.37-.47.23-.09.42-.25.57-.44.13-.16.26-.28.5-.28-.06-.22-.13-.41-.15-.61-.04-.57-.48-.87-1.03-.75-.31.07-.34.06-.41-.25-.07-.32-.12-.64-.17-.96-.05-.33-.17-.63-.39-.89-.31-.36-.58-.33-.79.08-.25.51-.3,1.03-.05,1.56.08.17.17.33.25.5.09.21.04.29-.19.3-.17,0-.34,0-.51-.03-.35-.05-.7-.12-1.05-.19-.26-.05-.51-.01-.75.1-.18.08-.4.15-.41.38-.01.24.17.38.35.5Z"/><path class="cls-5" d="M341.5,236.48c.13.09.27.14.42.16.2.03.41.02.61-.02.08-.02.17-.03.25-.04.06,0,.14,0,.16.07.02.09-.06.1-.12.12-.43.17-.67.53-.85.92-.16.35.08.65.47.62.12,0,.23-.06.33-.11.21-.11.42-.22.67-.35-.15.27-.25.51-.33.76-.02.05-.04.12.02.14.07.04.12-.02.15-.08.12-.27.3-.52.38-.81.02-.07.02-.16.13-.15.17.01.17-.04.07-.15-.03-.04,0-.08.05-.1.08-.03.17-.06.25,0,.08.06.02.14,0,.21-.12.38-.24.76-.36,1.13-.02.07-.09.13-.02.2.05.01.09-.02.11-.06.18-.46.44-.89.55-1.37.04-.18.12-.29.28-.35.17-.07.31-.19.43-.33.1-.12.2-.21.38-.21-.05-.17-.1-.31-.11-.46-.03-.43-.36-.66-.78-.56-.23.05-.26.04-.31-.19-.05-.24-.09-.48-.13-.73-.04-.25-.13-.48-.29-.67-.23-.27-.44-.25-.6.06-.19.38-.23.78-.04,1.18.06.13.13.25.19.37.07.16.03.22-.14.23-.13,0-.26,0-.38-.03-.26-.04-.53-.09-.79-.14-.2-.04-.39-.01-.56.07-.13.06-.3.12-.31.29-.01.18.13.29.26.38Z"/></svg>